<svg xmlns="http://www.w3.org/2000/svg" width="520" height="320"><rect x="0" y="0" width="520" height="320" fill="floralwhite"/><rect x="10" y="10" width="500" height="300" stroke="black" stroke-width="1" fill="none"/><path stroke="black" stroke-width="1" fill="none" stroke-linecap="round" stroke-linejoin="round" d="
M 160.33 238.13 161.59 237.13 163.12 236.71 166.3 236.48 171.09 236.65 192.39 238.06 
M 163.59 238.47 162.19 239.24 161.41 237.9 
M 164.67 238.26 163.27 239.03 162.5 237.69 
M 167.53 238.09 166.12 238.86 165.35 237.52 
M 171.38 238.2 169.97 238.97 169.19 237.63 
M 176.29 238.52 174.89 239.29 174.11 237.95 
M 182.32 238.95 180.92 239.73 180.14 238.39 
M 98.15 238.78 102.95 239.1 106.11 239.52 110.88 239.63 120.43 240.19 125.2 240.72 128.35 241.28 133.13 241.71 141.07 241.08 150.41 239.13 160.33 238.21 
M 184.98 239.7 186.55 240.01 194.46 240.8 199.22 240.6 202.38 240.23 207.15 239.98 221.47 240.14 230.99 239.74 242.09 239.82 248.48 239.46 264.32 240.19 270.7 239.93 275.46 240.6 278.64 240.86 283.43 240.73 288.22 240.84 296.13 239.95 304.07 240.57 323.17 240.81 326.35 240.97 343.89 240.15 348.6 239.45 356.52 238.81 359.71 238.73 367.63 237.97 375.59 237.69 380.38 237.99 383.58 237.88 388.38 238.13 393.17 238.61 399.5 239.71 401.11 239.82 410.73 239.77 415.51 240.16 421.84 240.14 
M 127.68 242.79 132.46 243.19 140.43 242.73 145.1 241.76 151.37 240.71 160.55 239.73 
M 172.2 239.74 178.57 240.19 187.99 241.76 195.92 242.32 207.01 241.6 216.56 241.67 222.93 241.96 230.84 241.41 237.17 241.42 248.34 240.94 253.11 241.12 264.18 241.89 270.56 241.66 275.32 242.28 278.51 242.51 288.08 242.2 296 241.36 297.59 241.4 303.91 242.18 308.65 242.43 315 242.67 322.99 242.55 327.77 242.85 332.57 242.62 345.24 241.21 348.35 240.63 351.52 240.39 356.29 240.12 359.48 240.12 370.58 239.21 375.36 239.14 380.97 239.42 
M 124.48 244.12 129.23 244.82 134.02 245.15 141.96 244.47 146.58 243.32 151.28 242.5 156.04 242.17 160.76 241.58 165.53 241.35 176.72 241.73 179.88 242.11 186.11 243.48 187.69 243.69 190.87 243.8 194.02 244.25 198.77 244.09 203.51 243.61 209.86 243.28 216.23 243.2 222.6 243.38 230.53 243.13 236.85 243.42 248.01 242.83 251.2 242.92 255.94 243.4 260.69 243.62 263.87 243.71 270.25 243.48 273.44 243.74 275 244.09 278.17 244.49 282.96 244.37 286.14 244.59 287.74 244.57 295.64 243.64 297.23 243.63 303.56 244.19 322.65 244.3 327.44 244.53 338.61 243.75 343.38 243.57 349.65 242.66 359.19 242.04 362.35 241.58 371.88 241.06 376.66 241.08 379.85 241.3 383.06 241.22 392.2 242 
M 129.29 246.9 134.09 247.08 137.26 246.74 140.44 246.6 142.02 246.37 146.63 245.2 151.33 244.38 157.66 243.86 170.4 243.46 176.79 243.63 181.53 244.32 186.19 245.42 195.68 246.25 200.44 246.07 203.6 245.77 209.95 245.64 221.1 245.77 230.61 245.27 236.94 245.48 249.7 244.99 263.99 245.7 270.36 245.48 278.28 246.49 283.06 246.22 287.84 246.31 295.73 245.3 297.32 245.28 303.62 245.97 308.37 246.17 314.71 246.38 322.7 246.34 327.49 246.54 333.89 246.23 337.07 245.84 343.43 245.43 346.57 244.99 348.11 244.6 356.03 243.79 359.22 243.74 367.16 243.14 375.12 243.02 379.91 243.33 383.12 243.25 389.52 243.66 393.8 244.17 
M 134.1 249.26 142.02 248.49 146.63 247.32 151.33 246.51 154.51 246.44 157.67 246.15 170.41 245.75 176.8 245.76 178.39 245.93 181.54 246.45 186.2 247.53 190.97 247.92 194.11 248.36 203.61 247.86 209.96 247.88 213.14 248.04 222.69 248.02 230.6 247.35 241.72 247.29 248.09 246.92 252.88 247.05 264 247.85 270.37 247.74 278.28 248.76 283.06 248.65 286.24 248.88 287.83 248.84 295.73 247.94 297.32 247.93 300.48 248.15 303.62 248.57 314.73 248.8 322.7 248.71 327.5 248.93 343.44 247.68 346.6 247.32 348.14 246.93 351.31 246.65 356.08 246.39 359.26 246.41 370.38 245.71 376.17 245.64 
M 129.3 251.83 132.49 252.11 134.1 252.1 140.46 251.65 151.38 249.69 157.71 249.14 168.85 248.75 176.84 248.95 181.59 249.6 186.3 250.51 195.81 251.25 198.97 251.08 203.7 250.53 206.87 250.41 221.18 250.6 230.7 250.26 241.82 250.71 245 250.59 248.17 250.24 251.36 250.23 264.14 250.69 270.49 250.39 278.41 251.21 283.19 251.06 287.95 251.35 295.86 250.69 297.45 250.69 303.77 251.18 314.89 251.58 322.85 251.32 327.64 251.52 334.05 251.26 343.6 250.55 348.31 249.73 356.23 249.06 359.41 249.03 362.57 248.58 367.33 248.2 375.29 247.88 380.08 248.26 383.29 248.23 390.6 248.91 
M 130.91 255.18 134.1 255.45 137.28 255.11 140.46 254.98 142.03 254.78 145.25 254.03 
M 173.89 252.08 178.68 252.37 186.54 253.86 191.31 254.17 194.46 254.55 199.2 254.13 203.92 253.47 210.26 253.18 215.02 253.38 230.91 253.23 242.04 253.7 249.96 253.2 264.37 253.5 270.72 253.22 272.3 253.38 276.97 254.38 278.56 254.53 283.33 254.38 286.5 254.61 288.09 254.56 295.99 253.8 300.73 254.05 303.88 254.4 311.84 254.52 320.32 254.92 
M 326.71 255.05 333.13 254.74 344.28 253.93 347.5 253.34 
M 368.18 251.27 376.15 250.9 380.94 251.28 387.39 251.5 
M 142.08 258.53 146.66 257.27 151.31 256.29 154.48 256.01 157.64 255.51 165.6 255.1 170.37 255.11 176.74 255.54 181.47 256.4 186.12 257.57 187.7 257.82 190.89 257.93 194.03 258.34 195.62 258.34 198.77 258.04 203.49 257.33 206.65 257.13 215.31 257.28 
M 221.66 257.42 229.6 257.01 240.74 257.02 250.26 256.58 263.06 257.27 271 257.02 277.25 258.22 286.77 258.67 288.36 258.61 296.22 257.57 304.11 258.13 318.43 258.18 326.41 258.4 332.82 258.22 337.61 257.85 343.99 257.69 348.7 256.89 356.61 256.15 359.78 255.99 366.11 255.31 376.16 254.92 
M 159.55 260.2 165.91 259.83 169.11 259.96 
M 173.9 260.25 177.09 260.35 180.25 260.84 186.51 262.17 191.28 262.48 194.43 262.88 199.18 262.53 203.9 261.87 207.07 261.69 216.62 261.5 222.97 261.6 226.15 261.46 237.3 261.61 248.4 261.22 262.77 262.06 270.71 261.73 275.44 262.41 278.61 262.64 283.37 262.41 288.13 262.67 296.01 261.86 303.91 262.34 315.03 262.46 323.01 262.3 327.81 262.47 337.4 261.88 343.77 261.66 348.49 261 356.42 260.26 359.59 260.23 367.55 259.77 377.76 259.83 
M 194.67 267.37 207.36 266.66 221.68 266.84 229.6 266.26 240.76 266.41 248.67 266.02 261.43 266.51 270.98 266.32 277.29 267.2 283.64 267.26 286.81 267.47 289.97 267.31 296.27 266.57 302.57 267.24 308.91 267.57 321.65 267.25 328.04 267.43 332.85 267.3 337.63 266.93 343.99 266.68 348.71 266.08 359.83 265.19 367.75 264.32 371.37 264.18 
M 161.16 270.81 165.94 270.64 170.73 270.72 
M 173.93 270.87 177.13 270.96 186.58 272.58 191.35 272.85 194.51 273.25 199.26 272.98 204 272.44 208.75 272.11 213.52 272.13 216.71 271.98 221.47 272.13 229.41 271.82 237.39 271.91 248.5 271.67 264.43 272.46 270.79 272.19 275.54 272.75 278.72 272.95 283.47 272.77 288.22 272.88 296.1 272.04 303.98 272.73 326.25 273.57 332.64 273.32 343.78 272.55 348.47 271.75 356.41 271.19 359.6 271.14 363.36 270.64 
M 170.78 276.92 177.17 277.06 186.55 278.9 194.47 279.69 210.34 279.13 216.7 279.04 223.05 279.16 229.39 278.84 237.37 279.15 243.73 279.04 248.49 278.72 261.54 278.97 
M 267.91 278.81 271.1 278.72 275.83 279.44 279 279.67 283.74 279.42 288.48 279.69 296.35 278.91 299.51 279.07 302.65 279.51 308.99 279.85 313.76 280 321.73 279.79 326.52 279.93 337.65 279.25 345.62 278.95 348.77 278.53 356.69 277.85 359.88 277.8 369.71 276.83 
M 396.77 240.41 399.88 241.25 401.47 241.5 408.81 242.19 
M 396.77 240.94 399.82 241.97 401.39 242.33 408.8 243.52 
M 396.77 241.46 401.29 243.13 408.79 244.85 
M 396.77 241.98 401.18 243.92 411.98 247.26 
M 138.29 220.12 140.99 218.44 142.53 218.01 144.12 218.15 145.59 218.77 146.94 219.62 146.06 220.95 144.56 221.49 142.98 221.7 141.4 221.47 138.29 220.12 
M 143.65 220.14 142.6 221.33 141.24 220.49 141.87 219.03 143.65 220.14 
M 141.92 219.01 141.22 220.4 
M 142.53 218.92 141.51 220.95 
M 143.02 219.05 141.91 221.25 
M 143.39 219.42 142.41 221.38 
M 143.63 220.06 143.07 221.17 
M 138.68 217.19 141.65 216.03 143.23 215.84 144.81 216.07 147.68 217.22 
M 141.11 218.39 141.5 217.22 
M 142.99 217.99 143.38 216.82 
M 144.87 218.41 145.26 217.23 
M 123.92 201.21 141.26 203.63 158.73 205.51 176.2 206.75 192.09 207.33 206.46 207.45 227.08 207.01 241.31 206.25 261.89 204.46 279.29 202.26 296.67 199.47 313.93 196.08 331.01 192.17 344.87 188.58 363.24 183.19 379.87 177.75 396.73 171.76 
M 396.73 171.76 394.19 179.28 386.92 203.8 383.47 214.39 378.43 227.82 373.96 237.73 
M 123.92 201.21 130.93 211.87 138.55 222.12 146.78 231.88 153.34 238.85 
M 126.03 204.55 143.39 206.79 159.28 208.38 175.17 209.46 192.65 210.08 208.6 210.15 227.65 209.73 243.47 208.88 262.47 207.25 279.88 205.14 297.27 202.46 314.53 199.2 331.69 195.47 347.14 191.62 364.01 186.86 377.65 182.6 395.01 176.75 
M 130.41 211.11 146.25 212.89 160.56 214.12 176.44 215.07 192.35 215.54 209.89 215.58 227.36 215.24 244.78 214.36 262.21 212.99 281.23 210.89 297.07 208.68 314.34 205.75 331.62 202.4 347.18 198.92 362.63 195.04 376.41 191.19 392.02 186.45 
M 132.69 214.34 148.55 215.99 162.89 217.08 177.17 217.86 193.09 218.28 210.62 218.3 228.09 217.96 243.93 217.19 262.96 215.78 281.98 213.77 296.26 211.88 313.57 209.14 332.44 205.7 344.91 203.08 362 199.09 374.31 195.87 390.62 191.22 
M 135.04 217.56 141.56 218.22 
M 145.2 218.56 159.52 219.67 175.41 220.54 189.74 220.95 205.67 221.06 221.58 220.88 235.84 220.39 250.11 219.59 265.97 218.37 281.83 216.75 294.54 215.19 311.91 212.66 332.36 209.16 344.87 206.7 362.01 202.95 374.37 199.92 389.25 195.93 
M 137.47 220.74 140.03 220.98 
M 144.86 221.41 159.18 222.45 176.68 223.34 191 223.69 206.94 223.78 221.26 223.61 237.11 223.09 251.38 222.31 265.64 221.25 281.52 219.75 292.64 218.5 311.65 215.93 330.55 212.9 344.66 210.33 361.86 206.82 374.26 204 387.88 200.6 
M 139.96 223.88 154.28 224.97 173.38 225.96 187.7 226.36 203.66 226.51 217.97 226.4 235.42 225.92 249.69 225.21 263.93 224.23 278.24 223.02 292.55 221.56 311.6 219.17 327.35 216.81 341.52 214.48 358.76 211.26 372.78 208.36 386.48 205.21 
M 142.53 226.98 156.86 227.94 174.37 228.76 188.68 229.11 206.24 229.23 218.96 229.11 238 228.58 252.27 227.86 266.5 226.89 279.24 225.88 295.16 224.33 311.06 222.47 323.66 220.74 337.87 218.61 355.14 215.7 370.81 212.74 385.03 209.76 
M 145.18 230.07 157.91 230.82 177.02 231.61 191.34 231.88 208.89 231.94 220.02 231.81 239.06 231.29 253.34 230.6 269.16 229.58 280.33 228.74 299.45 226.99 324.77 223.96 354.72 219.51 370.43 216.77 383.52 214.26 
M 147.91 233.13 162.22 233.84 178.16 234.41 208.43 234.66 222.75 234.47 240.2 234.01 254.48 233.35 270.33 232.41 299.03 230.16 324.38 227.39 355.95 223.07 381.94 218.72 
M 150.73 236.17 163.15 236.7 
M 178.88 237.2 202.76 237.41 231.39 237.01 255.2 236.14 279.05 234.77 301.36 233.07 326.71 230.5 358.32 226.51 380.28 223.15 
M 186.92 240.07 203.26 240.14 
M 212.63 240.04 227.47 239.84 
M 231.29 239.75 247.19 239.27 266.22 238.46 282.18 237.54 302.89 236.09 325.09 234.05 347.3 231.6 361.47 229.91 378.54 227.55 
M 277.3 240.8 301.19 239.37 325.01 237.42 356.71 234.26 376.69 231.89 
M 323.91 240.87 350.91 238.56 374.71 236.16 
M 132.09 200.64 149.51 202.81 165.4 204.28 181.28 205.2 197.2 205.65 214.69 205.56 230.54 205.09 244.78 204.23 262.19 202.67 278 200.67 295.4 197.92 311.11 194.91 326.67 191.44 342.07 187.56 357.42 183.17 372.61 178.42 388.51 172.97 
M 132.09 202.43 132.09 200.64 
M 136.99 203.09 136.99 201.3 
M 141.91 203.71 141.91 201.93 
M 146.84 204.3 146.84 202.51 
M 151.76 204.83 151.77 203.05 
M 156.68 205.32 156.69 203.54 
M 161.6 205.76 161.6 203.97 
M 166.51 206.14 166.52 204.36 
M 171.42 206.47 171.42 204.69 
M 176.32 206.75 176.32 204.97 
M 181.22 206.98 181.22 205.2 
M 186.11 207.17 186.11 205.38 
M 191.01 207.31 191.02 205.52 
M 195.95 207.41 195.95 205.63 
M 200.88 207.46 200.88 205.68 
M 205.78 207.45 205.79 205.68 
M 210.67 207.4 210.67 205.62 
M 215.56 207.33 215.56 205.55 
M 220.46 207.23 220.46 205.45 
M 225.36 207.08 225.35 205.3 
M 230.23 206.88 230.23 205.1 
M 235.1 206.64 235.1 204.86 
M 239.99 206.35 239.99 204.58 
M 244.9 205.99 244.9 204.22 
M 249.81 205.59 249.8 203.82 
M 254.71 205.17 254.7 203.4 
M 259.6 204.7 259.59 202.94 
M 264.5 204.17 264.5 202.4 
M 269.41 203.58 269.4 201.82 
M 274.32 202.95 274.32 201.18 
M 279.25 202.26 279.25 200.49 
M 284.2 201.53 284.2 199.76 
M 289.14 200.75 289.14 198.98 
M 294.07 199.92 294.07 198.15 
M 298.99 199.05 298.98 197.28 
M 303.91 198.13 303.91 196.36 
M 308.84 197.14 308.85 195.38 
M 313.78 196.12 313.79 194.35 
M 318.7 195.05 318.7 193.28 
M 323.61 193.92 323.6 192.15 
M 328.51 192.77 328.51 191 
M 333.41 191.59 333.4 189.81 
M 338.3 190.34 338.29 188.56 
M 343.21 189.03 343.2 187.25 
M 348.13 187.67 348.11 185.88 
M 353.04 186.25 353.03 184.47 
M 357.95 184.8 357.95 183.02 
M 362.87 183.31 362.86 181.53 
M 367.77 181.77 367.76 179.99 
M 372.65 180.18 372.66 178.41 
M 377.55 178.54 377.56 176.77 
M 382.48 176.85 382.49 175.09 
M 387.41 175.12 387.41 173.36 
M 364.89 77.07 372.03 127.78 379.3 177.95 
M 374.07 105.74 380.41 177.56 
M 375.91 134.42 380.18 177.64 
M 370.2 162.88 375.61 179.2 
M 296.06 50.95 301.49 88.69 311.89 156.65 318.01 195.2 
M 305.34 90.72 313.41 155.76 318.48 195.09 
M 308.28 130.82 311.94 156.05 318.03 195.19 
M 304.06 170.72 314.24 196.02 
M 186.97 97.74 197.22 141.16 213.54 207.36 
M 199.64 125.55 213.63 207.36 
M 204.34 153.38 213.63 207.36 
M 200.6 181.15 206.06 192.69 213.25 207.36 
M 240.35 197.78 239.17 198.84 238.19 197.58 239.52 196.71 240.35 197.78 
M 238.02 199.11 239.61 199.12 240.4 200.5 240.34 202.09 238.76 202.23 238.09 200.79 238.02 199.11 
M 238.63 202.23 238.41 206.44 
M 239.85 202.24 239.96 206.34 
M 239.24 199.91 236.57 200.92 
M 308.31 189.22 307.08 190.24 306.27 188.87 307.79 188.36 308.31 189.22 
M 306.05 190.51 307.66 190.5 308.36 191.93 308.09 193.5 306.48 193.5 306.11 191.96 306.05 190.51 
M 306.64 193.5 306.41 197.63 
M 307.82 193.5 307.91 197.33 
M 305.07 188.8 309.39 188.78 
M 307.23 191.3 304.64 192.27 
M 357.81 176.79 356.59 177.81 355.74 176.48 357.22 175.88 357.81 176.79 
M 355.53 178.08 357.13 178.08 357.85 179.5 357.79 181.09 356.19 181.12 355.59 179.64 355.53 178.08 
M 356.12 181.12 355.91 185.4 
M 357.31 181.12 357.43 184.96 
M 354.55 176.36 358.9 176.35 
M 356.72 178.88 354.11 179.86 
M 359.49 176.3 357.72 177.08 
M 357.41 176.01 358.88 175.37 359.49 176.3 
M 357.36 177.6 358.96 177.59 359.52 179.08 359.12 180.62 357.8 180.62 
M 357.23 178.08 357.21 177.7 
M 357.77 181.11 357.58 184.91 
M 358.98 180.62 359.1 184.45 
M 359.58 178.39 359.7 181.42 
M 344.14 174.48 350.49 173.65 361.24 170.5 377.94 165.17 396.74 158.48 
M 344.77 177.27 351.09 176.25 364.88 172.16 380.03 167.24 396.75 161.26 
M 345.41 180.05 350.14 179.28 351.86 178.81 
M 354.18 178.14 356.07 177.59 
M 357.71 177.1 357.74 177.09 
M 359.39 176.6 360.07 176.4 
M 362.39 175.7 368.27 173.88 
M 370.57 173.14 376.45 171.22 
M 378.76 170.44 384.64 168.41 
M 386.96 167.59 396.76 164.05 
M 346.05 182.85 350.75 181.92 355.63 180.5 
M 359.51 179.35 377.72 173.56 396.76 166.82 
M 346.7 185.64 352.9 184.1 369.67 178.99 383.27 174.42 396.75 169.6 
M 396.48 172.47 396.73 172.38 
M 351.85 179.55 351.86 177.96 352.84 176.7 354.18 177.55 354.17 179.14 351.85 179.55 
M 360.07 177.12 360.08 175.53 361.06 174.28 362.39 175.14 362.39 176.72 360.07 177.12 
M 368.26 174.58 368.27 172.99 369.25 171.74 370.58 172.6 370.57 174.18 368.26 174.58 
M 376.44 171.9 376.45 170.32 377.43 169.06 378.76 169.91 378.75 171.49 376.44 171.9 
M 384.64 169.07 384.65 167.49 385.63 166.23 386.96 167.08 386.95 168.67 384.64 169.07 
M 343.55 171.86 349.91 171.14 359.14 168.51 377.39 162.73 395.41 156.34 396.74 157.22 396.73 173.07 396.08 173.58 
M 347.24 187.91 343.55 171.86 
M 343.55 169.38 396.74 153.37 
M 343.55 171.86 343.55 169.38 
M 344.51 171.57 344.51 169.1 
M 345.47 171.29 345.47 168.81 
M 346.43 171 346.44 168.53 
M 347.39 170.72 347.4 168.24 
M 348.35 170.43 348.36 167.95 
M 349.31 170.14 349.32 167.67 
M 350.27 169.85 350.28 167.38 
M 351.23 169.56 351.24 167.09 
M 352.19 169.27 352.2 166.8 
M 353.15 168.99 353.16 166.51 
M 354.11 168.7 354.12 166.22 
M 355.07 168.41 355.08 165.93 
M 356.03 168.12 356.04 165.64 
M 356.99 167.83 357 165.35 
M 357.95 167.54 357.96 165.06 
M 358.91 167.25 358.92 164.77 
M 359.87 166.96 359.87 164.48 
M 360.83 166.68 360.83 164.19 
M 361.79 166.39 361.79 163.91 
M 362.75 166.1 362.75 163.62 
M 363.7 165.81 363.7 163.33 
M 364.66 165.53 364.66 163.04 
M 365.61 165.24 365.61 162.76 
M 366.57 164.96 366.57 162.47 
M 367.53 164.67 367.53 162.18 
M 368.49 164.38 368.49 161.89 
M 369.44 164.09 369.45 161.61 
M 370.4 163.81 370.41 161.32 
M 371.36 163.52 371.37 161.03 
M 372.32 163.23 372.33 160.74 
M 373.27 162.94 373.29 160.45 
M 374.23 162.65 374.25 160.16 
M 375.19 162.36 375.2 159.87 
M 376.15 162.07 376.16 159.58 
M 377.11 161.78 377.12 159.29 
M 378.06 161.49 378.08 159 
M 379.02 161.2 379.03 158.71 
M 379.98 160.91 379.99 158.43 
M 380.93 160.63 380.94 158.14 
M 381.89 160.34 381.9 157.85 
M 382.84 160.05 382.85 157.56 
M 383.8 159.76 383.8 157.27 
M 384.76 159.47 384.76 156.98 
M 385.71 159.18 385.71 156.7 
M 386.67 158.89 386.67 156.41 
M 387.62 158.6 387.62 156.12 
M 388.58 158.32 388.58 155.83 
M 389.54 158.03 389.54 155.55 
M 390.49 157.74 390.49 155.26 
M 391.44 157.45 391.44 154.97 
M 392.4 157.16 392.4 154.68 
M 393.35 156.87 393.35 154.4 
M 394.3 156.59 394.3 154.11 
M 395.25 156.3 395.25 153.82 
M 396.21 156.01 396.21 153.53 
M 257.13 204.91 257.1 197.02 258.65 196.67 265.02 196.69 265.2 198.26 265.22 204.08 
M 257.42 204.91 257.13 204.91 
M 257.13 204.91 265.19 196.69 
M 257.1 196.66 264.46 204.17 
M 338.19 189.95 337.52 186.83 337.59 185.23 337.9 183.67 338.96 182.48 343.74 182.46 344.68 183.74 345.02 185.31 345.07 186.9 344.72 188.62 
M 339.8 189.95 338.19 189.95 
M 337.71 188.08 344.91 188.06 
M 337.69 184.34 344.89 184.32 
M 304.14 77.48 333.27 69.06 360.46 61.85 
M 304.44 78.59 332.23 71.31 360.78 62.94 
M 304.14 77.48 304.44 78.59 
M 360.46 61.85 360.78 62.94 
M 305.32 182.53 322.88 182.32 345.72 181.41 
M 305.31 183.58 322.87 183.75 337.95 183.44 
M 344.53 183.05 346.07 182.95 
M 305.32 182.53 305.31 183.58 
M 217.84 50.46 231.73 46.82 265.59 37.48 291.54 30 
M 218.12 51.56 238.26 46.65 255.32 42.24 269.05 38.2 291.88 31.09 
M 217.84 50.46 218.12 51.56 
M 291.54 30 291.88 31.09 
M 218.48 190.22 264.45 188.86 302.79 187.27 
M 218.5 191.27 240.68 191.06 261.31 190.68 302.85 188.32 
M 218.48 190.22 218.5 191.27 
M 302.79 187.27 302.85 188.32 
M 127.82 97.37 153.73 89.65 180.45 82.82 
M 128.15 98.48 154.28 91.48 180.74 83.92 
M 127.82 97.37 128.15 98.48 
M 180.45 82.82 180.74 83.92 
M 141.9 193.81 201.96 191.5 
M 141.92 194.87 157.87 194.72 172.2 194.39 202.02 192.55 
M 141.9 193.81 141.92 194.87 
M 201.96 191.5 202.02 192.55 
M 306.07 78.18 304.57 97.25 304.27 103.67 303.67 140.43 304.18 151.61 306.49 182.52 
M 316.1 182.43 345.24 179.34 
M 369.52 165.31 372.32 154.49 373.7 148.3 374.7 143.64 375.62 137.31 376.12 130.94 376.2 126.15 375.46 114.97 374.6 108.62 373.34 102.34 372.17 97.7 370.3 91.56 368.22 85.5 365.9 79.56 359.03 63.47 
M 305.62 83.44 315.06 82.21 326.22 81.04 342.05 78.95 364.89 77.07 
M 305.62 84.47 315.06 83.24 327.81 81.88 342.05 79.98 364.9 78.11 
M 305.15 89.33 314.72 89.43 327.46 90.11 337 90.03 362.6 91.2 370.26 91.42 
M 305.16 90.36 314.74 90.47 327.47 91.15 337 91.07 356.24 91.98 370.26 92.46 
M 304.71 95.23 315.77 96.92 328.26 99.43 340.92 101.03 350.34 102.69 358.25 103.8 374.07 105.74 
M 304.71 96.27 315.78 97.96 328.27 100.48 340.93 102.07 350.34 103.74 358.25 104.84 374.07 106.78 
M 304.35 101.19 316.63 104.79 333.37 109.99 356.6 115.63 375.89 120.03 
M 304.36 102.23 316.63 105.83 333.38 111.03 356.6 116.67 375.89 121.07 
M 304.18 107.21 333.52 119.83 366.69 131.01 375.91 134.42 
M 304.18 108.25 333.52 120.86 366.69 132.05 375.91 135.46 
M 304.11 113.23 333.36 129.49 355.21 139.14 365.26 144.07 373.64 148.57 
M 304.12 114.27 333.36 130.53 355.22 140.18 365.26 145.1 373.65 149.6 
M 304.03 119.23 333 139 346.9 146.72 353.74 150.82 357.77 153.42 364.26 158.05 370.2 162.88 
M 304.03 120.27 333.01 140.04 346.9 147.76 353.74 151.85 357.77 154.45 364.26 159.09 370.19 163.92 
M 363.61 160.29 362.08 167.62 
M 369.28 140.98 366.44 156.64 364.18 166.98 
M 372.09 116.38 372.73 125.95 372.19 137.12 371.28 143.45 368.4 157.47 366.31 166.32 
M 367.61 86.83 370.55 95.99 372.79 105.32 374.08 113.22 374.78 121.2 375.01 125.99 374.86 132.38 374.09 140.33 373.26 145.05 371.58 152.8 368.45 165.65 
M 219.76 51.17 218.4 65.36 216.24 92.33 215.61 106.74 215.4 127.59 215.49 135.53 216.41 152.88 217.63 170.3 219.31 190.2 
M 246.48 190.98 299.16 190.73 300.72 190.37 301.07 188.43 
M 301.26 187.34 303.44 174.77 305.07 163.45 
M 305.12 89.72 302.97 78.76 299.47 63.27 294.74 46.48 290.05 31.66 
M 219.07 58.33 233.32 56.56 252.4 54.45 263.51 53.73 274.61 52.52 296.06 50.95 
M 219.08 59.36 233.32 57.59 252.4 55.49 263.51 54.77 274.61 53.56 296.06 51.99 
M 218.31 66.16 232.64 66.54 262.92 67.86 283.52 69.64 301.21 70.73 
M 218.32 67.18 232.64 67.57 262.91 68.89 283.52 70.67 301.2 71.77 
M 217.68 74.02 231.8 76.49 256.77 81.66 266.15 83.29 305.05 90.66 
M 217.68 75.06 231.8 77.52 256.77 82.7 266.16 84.32 304.97 91.68 
M 217.05 81.91 235.23 87.8 257.88 95.67 286.94 104.21 304.14 109.58 
M 217.05 82.94 235.23 88.84 257.89 96.71 286.95 105.24 304.13 110.61 
M 216.42 89.77 232.36 97.08 256.96 108.7 283.46 119.59 293.69 124.06 303.86 128.72 
M 216.41 90.81 232.36 98.12 256.97 109.74 283.46 120.63 293.68 125.09 303.84 129.75 
M 215.95 97.7 249.07 117.11 257.18 122.19 271.26 129.57 283.79 136.44 297.52 144.71 304.07 149 
M 215.95 98.74 249.07 118.14 257.18 123.23 271.26 130.61 283.79 137.48 297.52 145.75 304.12 150.06 
M 215.64 105.66 249.58 129.65 257.06 135.6 271.76 145.1 282.15 152.54 295.9 163.44 304.06 170.72 
M 215.64 106.7 249.58 130.68 257.06 136.64 271.76 146.14 282.15 153.58 295.89 164.47 304.06 171.75 
M 292.01 182.19 291.33 187.62 
M 296.11 161.8 293.13 187.6 
M 300.09 142.16 297.48 167.53 294.93 187.58 
M 302.87 117.85 302.99 129.04 302.51 138.62 299.54 167.16 298.34 176.65 296.73 187.55 
M 302.13 90.73 302.95 95.46 304.19 107.15 
M 303.93 145.82 301.44 167.98 300.14 177.46 298.54 187.47 
M 297.28 58.68 298.87 64.79 301.59 77.2 304.8 94.04 
M 304.71 158.37 302.57 174.13 300.35 187.38 
M 129.86 98 131.54 131.46 132.53 142.55 134.47 156.71 139.25 186.46 140.58 194.33 141.34 195.74 195.49 195.12 197.03 194.72 197.53 192.86 
M 197.85 191.68 199.91 183.97 201.36 177.76 202.58 171.53 203.99 162.14 204.33 155.84 204.29 151.09 203.89 144.77 203.25 140.06 202 133.82 200.29 127.68 198.26 121.66 196.56 117.19 194.66 112.8 191.23 105.61 188.2 99.97 179.06 84.4 
M 130.13 102.98 150.69 100.47 186.97 97.74 
M 130.13 104.02 150.7 101.51 186.98 98.78 
M 130.44 108.54 146.42 108.93 168.65 110.35 194.14 111.63 
M 130.44 109.58 146.42 109.96 168.66 111.38 194.14 112.67 
M 130.72 114.1 141.81 115.81 157.44 118.81 165.34 120.03 174.7 121.79 199.64 125.55 
M 130.72 115.14 141.81 116.84 157.45 119.84 165.34 121.06 174.71 122.82 199.64 126.57 
M 130.97 119.61 149.33 125.02 160.01 128.49 169.23 130.99 203.18 139.52 
M 130.97 120.64 149.33 126.06 160.01 129.52 169.24 132.02 203.18 140.55 
M 131.21 125.06 147.36 131.91 160.56 137.75 192.12 148.79 204.34 153.38 
M 131.21 126.09 147.37 132.94 160.57 138.78 192.13 149.82 204.35 154.41 
M 131.48 130.5 162.3 147.49 175.47 153.16 188.44 159.2 195.46 162.79 203.29 167.23 
M 131.49 131.53 162.31 148.53 175.47 154.19 188.44 160.22 195.45 163.81 203.29 168.26 
M 131.85 135.98 149.25 147.34 162.49 156.33 176.46 163.92 184.56 168.84 192.34 174.29 197.34 178.25 200.6 181.15 
M 131.85 137.01 149.26 148.38 162.49 157.36 176.46 164.94 184.55 169.88 188.49 172.53 193.6 176.3 197.35 179.28 200.6 182.19 
M 192.99 182.38 191.36 191.94 
M 197.77 162.72 195.8 178.46 193.22 191.86 
M 199.09 138.11 199.9 142.81 200.27 145.95 200.67 155.46 200.53 160.19 200.23 163.32 198.19 177.45 195.08 191.79 
M 191.33 108.15 195.2 116.89 197.94 124.36 199.36 128.91 200.62 133.52 201.63 138.19 202.73 146.05 203.09 155.54 203.03 158.7 202.65 163.41 200.66 175.93 198.95 183.71 196.92 191.71 
M 318.27 195.14 318 183.73 
M 317.96 182.4 317.96 182.24 
M 322.39 194.2 321.92 183.75 
M 321.86 182.34 321.84 181.85 
M 236.3 206.57 235.31 191.12 
M 240.42 206.32 240.09 202.24 
M 239.84 199.12 239.8 198.68 
M 239.65 196.76 239.2 191.08 
M 154.6 205.12 153.79 195.65 
M 158.82 205.52 157.75 195.61 
M 326.04 45.06 327.36 45.94 328.95 46.02 330.5 45.06 
M 333.18 48.61 334.5 49.48 336.09 49.56 337.64 48.61 
M 333.21 41.31 334.54 42.2 336.13 42.28 337.67 41.32 
M 340.33 51.92 341.65 52.8 343.23 52.89 344.77 51.93 
M 340.35 37.83 341.68 38.71 343.27 38.78 344.8 37.81 
M 240.38 291.39 238.49 297.7 
M 238.28 291.39 242.48 291.39 
M 243.98 291.39 242.09 297.7 
M 242.99 294.7 244.16 293.8 244.85 293.5 245.75 293.5 246.26 293.8 246.29 294.7 245.39 297.7 
M 248.21 295.3 251.81 295.3 251.99 294.7 251.87 294.1 251.15 293.5 250.25 293.5 249.56 293.8 248.78 294.39 248.21 295.3 248.03 295.89 248.06 296.8 248.48 297.39 248.99 297.7 249.89 297.7 250.58 297.39 251.36 296.8 
M 259.58 291.39 258.89 291.7 258.11 292.3 257.06 293.8 256.61 295.3 256.64 296.2 256.76 296.8 257.18 297.39 257.69 297.7 258.89 297.7 259.58 297.39 260.36 296.8 261.4 295.3 261.86 293.8 261.71 292.3 261.28 291.7 260.77 291.39 259.58 291.39 
M 264.05 293.5 262.78 297.7 
M 263.51 295.3 264.08 294.39 264.86 293.8 265.55 293.5 266.45 293.5 
M 268.27 291.39 268.49 291.7 268.88 291.39 268.67 291.1 268.27 291.39 
M 267.95 293.5 266.69 297.7 
M 271.55 293.5 270.86 293.8 270.08 294.39 269.51 295.3 269.33 295.89 269.36 296.8 269.77 297.39 270.29 297.7 271.19 297.7 271.88 297.39 272.66 296.8 273.23 295.89 273.41 295.3 273.38 294.39 272.95 293.8 272.45 293.5 271.55 293.5 
M 276.05 293.5 274.79 297.7 
M 275.69 294.7 276.86 293.8 277.55 293.5 278.45 293.5 278.95 293.8 278.99 294.7 278.08 297.7 
M 280.97 297.1 280.58 297.39 280.79 297.7 281.18 297.39 280.97 297.1 
"/></svg>
