<svg xmlns="http://www.w3.org/2000/svg" width="520" height="320"><rect x="0" y="0" width="520" height="320" fill="floralwhite"/><rect x="10" y="10" width="500" height="300" stroke="black" stroke-width="1" fill="none"/><path stroke="black" stroke-width="1" fill="none" stroke-linecap="round" stroke-linejoin="round" d="
M 168.56 220.15 169.74 219.01 171.12 218.05 174.1 216.7 177.23 216.1 180.54 215.88 187.04 216.25 201.61 218.26 217.33 220.09 
M 174.72 218.48 173.32 219.31 172.58 217.94 
M 176.75 217.97 175.28 218.71 174.55 217.37 
M 181.5 217.5 180.01 218.28 179.25 216.95 
M 187.26 217.8 185.84 218.57 185.11 217.2 
M 194.27 218.63 192.84 219.41 192.08 218.05 
M 202.69 219.86 201.22 220.65 200.49 219.29 
M 57.91 223.38 62.79 223.3 66 223.02 70.98 223.07 72.6 222.89 75.83 222.03 79.12 222.06 85.62 221.27 90.37 220.05 96.83 219.31 101.64 219.13 104.83 219.21 109.66 218.97 114.57 219.06 126.07 218.48 130.94 218.55 137.47 219.16 146.96 219.36 151.8 219.77 156.69 219.91 159.89 220.32 168.57 220.81 
M 205.37 218.71 208.67 218.48 218.75 218.61 223.63 218.39 228.53 218.47 241.46 219.74 246.34 219.82 251.27 220.12 259.62 220.18 264.51 220.5 270.92 221.67 277.42 222.11 280.65 221.96 283.77 222.54 285.4 222.63 290.19 222.4 306.56 222.5 311.62 221.92 314.89 222.01 316.47 221.9 327.81 222.84 335.88 221.96 340.83 221.73 344.06 221.75 347.28 222.17 348.9 222.16 355.33 221.75 365.05 221.51 369.83 221.08 371.41 220.75 374.49 219.69 379.38 218.67 385.95 217.6 390.82 217.21 398.92 217.66 402.23 218.02 408.59 219.32 413.45 219.33 418.4 219.71 423.24 220.65 424.88 220.81 429.79 220.59 436.26 221.88 444.43 221.83 449.31 220.95 453.11 220.74 
M 130.54 220.07 137.1 220.67 146.59 220.69 151.41 221.19 154.64 221.27 161.11 222.16 170.93 223.07 177.35 222.32 180.63 222.35 183.93 222.68 185.56 222.62 188.74 222.02 190.95 221.78 
M 217.29 220.09 230.41 219.88 241.62 221.31 246.51 221.52 253.09 222.12 259.78 222.08 266.29 222.59 271.05 223.53 277.54 223.73 279.17 223.53 280.77 223.54 283.89 224.13 285.56 224.24 290.37 224.01 301.87 224.01 306.72 224.32 310.08 224.02 315.08 224.06 318.26 223.84 327.98 224.54 334.42 223.59 340.96 223.24 344.23 223.37 347.46 223.82 349.06 223.81 368.44 222.88 371.61 222.33 374.68 221.27 377.9 220.57 382.89 219.91 386.17 219.29 391.05 218.89 394.3 219.25 402.39 219.79 408.81 220.79 413.69 220.56 419.38 220.97 
M 130.55 222.21 137.08 222.81 141.78 223.06 148.21 223.1 153.07 223.5 164.43 224.04 170.98 224.77 177.41 223.95 180.69 224 183.96 224.37 185.58 224.32 188.73 223.67 191.96 223.28 208.28 222.15 214.95 222.33 224.84 222.02 229.82 222.2 241.09 223.28 245.96 223.38 252.52 223.91 264.12 224.23 265.75 224.4 270.54 225.43 275.4 225.69 276.97 225.93 280.19 225.62 283.31 226.24 284.93 226.4 291.39 226.25 292.99 226.36 304.46 226.32 306.1 226.46 311.01 225.69 314.35 225.81 316.01 225.65 319.24 225.85 322.44 226.39 324.07 226.41 327.28 226.84 330.52 226.56 335.34 225.79 340.25 225.48 343.54 225.45 348.36 225.9 354.77 225.38 359.63 225.53 366.14 225.15 370.93 224.59 373.99 223.53 377.15 222.68 387.01 220.94 391.91 220.6 398.17 221.02 
M 132.15 224.32 137.07 224.75 146.64 224.75 151.51 225.09 156.36 225.08 171.05 226.41 177.5 225.58 180.77 225.61 184.02 225.99 185.64 225.96 188.81 225.44 198.53 224.29 205.1 224.14 208.37 223.89 220.03 224.25 224.89 224.07 239.93 225.43 
M 249.67 225.68 264.5 226.29 266.1 226.45 270.96 227.58 277.37 228 280.56 227.75 283.71 228.25 285.33 228.31 290.17 228.1 298.32 228.2 303.22 227.97 306.52 228 309.77 227.5 314.76 227.56 316.42 227.43 319.67 227.57 327.78 228.52 331.04 228.36 334.24 227.95 344.08 227.81 347.29 228.04 355.34 227.51 360.24 227.56 366.75 227.21 369.9 226.9 376.1 224.93 379.35 224.19 387.56 222.81 390.81 222.46 392.42 222.44 396.53 222.8 
M 130.44 226.65 133.72 226.81 137.08 227.18 156.42 227.8 161.19 228.46 171.05 228.88 177.56 227.87 180.81 227.95 184.01 228.44 185.62 228.48 188.79 228.05 195.28 227.59 198.56 227 200.21 226.86 208.42 226.62 220.02 226.65 224.77 226.45 231.44 226.83 239.58 227.61 246.04 227.76 252.59 228.16 259.22 228.12 264.06 228.37 265.68 228.54 270.59 229.59 275.4 229.91 276.98 230.17 280.15 229.97 283.22 230.71 284.83 230.87 289.66 230.72 296.17 230.84 304.36 230.4 306.01 230.51 307.67 230.34 310.93 229.68 315.87 229.66 319.1 229.9 322.36 230.46 324.04 230.54 327.3 230.99 330.57 230.79 335.3 230.02 340.2 229.69 345.07 229.72 346.7 229.99 348.31 230.01 355.72 229.79 
M 130.43 229.51 136.99 230.14 146.76 230.19 154.87 230.47 162.91 231.49 167.75 231.59 171.08 231.84 176.02 231 177.64 230.89 180.9 230.92 184.05 231.4 185.66 231.42 188.81 230.97 193.77 230.65 200.31 229.61 208.49 229.33 219.96 229.62 226.4 229.37 250.93 230.96 264.05 231.54 265.7 231.73 270.58 232.77 275.37 232.97 276.92 233.21 280.07 232.87 283.25 233.43 284.83 233.53 289.65 233.34 292.88 233.5 297.77 233.45 304.39 233.07 305.99 233.2 310.96 232.37 312.61 232.38 319.05 232.66 327.34 233.93 330.59 233.72 335.41 233.12 340.23 232.83 343.53 232.8 345.13 232.89 346.69 233.2 348.31 233.19 354.79 232.52 356.39 232.65 361.27 232.55 368.84 231.97 
M 130.42 232.65 136.94 233.01 140.23 232.97 150.06 233.34 156.56 233.39 162.98 234.28 171.18 234.95 177.75 234.08 180.98 234.13 184.17 234.54 185.78 234.5 200.36 232.4 205.28 232.45 210.14 232.24 219.9 232.51 224.79 232.47 231.36 232.68 246.02 233.91 260.76 234.29 265.72 234.81 270.57 235.73 277.03 236.13 280.2 235.91 284.88 236.64 286.5 236.67 289.73 236.4 297.8 236.65 305.99 236.41 310.97 235.69 314.27 235.93 315.89 235.82 319.15 235.96 322.4 236.49 327.37 236.96 340.31 235.44 343.53 235.39 348.31 235.79 354.86 235.43 359.71 235.58 366.24 235.25 371.18 234.59 374.26 233.64 379.07 232.68 382.35 232.35 385.49 231.82 388.68 231.63 391.92 231.19 398.42 231.46 403.1 231.98 
M 130.4 236.79 141.88 237.34 146.8 237.25 151.69 237.54 156.58 237.58 171.24 238.92 177.84 238.11 181.07 238.14 184.24 238.54 185.85 238.46 189.05 237.88 200.43 236.58 205.33 236.57 208.54 236.39 219.98 236.7 229.78 236.66 239.56 237.47 246.11 237.37 252.61 237.92 260.82 238.12 265.66 238.62 270.53 239.65 275.43 239.71 277.08 239.86 280.19 239.47 283.31 239.97 284.94 240.08 289.78 239.96 294.51 240.31 301.04 240.03 304.34 239.99 305.98 240.13 310.99 239.45 314.3 239.61 315.94 239.45 319.23 239.6 322.43 240.09 324.08 240.06 327.43 240.38 340.34 239.2 343.62 239.15 345.24 239.22 346.82 239.49 348.46 239.5 354.96 239.03 359.89 239.11 366.42 238.85 369.63 238.48 375.85 236.69 379.08 236.18 391.97 235.1 399.72 235.38 
M 403.1 235.72 406.35 236.14 
M 168.18 242.52 171.5 242.88 177.85 241.89 181.17 242.04 184.44 242.47 186.05 242.43 189.36 241.85 
M 199.06 240.92 203.98 240.94 208.83 240.69 215.35 240.95 228.42 240.75 241.51 241.76 251.28 242.09 259.39 242.15 264.32 242.48 265.94 242.73 270.67 243.96 277.12 244.5 280.38 244.45 285.1 245.19 289.89 244.99 296.32 245.09 301.28 244.74 306.29 244.84 311.19 244.23 314.48 244.42 317.74 244.28 327.56 245.18 330.87 244.95 334.07 244.46 340.56 244.05 343.85 244.02 347.18 244.34 348.8 244.31 355.23 243.87 360.08 243.9 366.66 243.54 371.43 242.82 374.4 241.69 377.57 240.98 381.77 240.52 
M 130.58 246.21 137.03 246.61 141.88 246.58 146.76 246.25 154.91 246.58 156.54 246.69 161.51 247.47 166.38 247.78 171.29 248.34 177.77 247.62 181 247.63 184.27 247.95 185.89 247.91 189.07 247.27 195.6 246.56 200.25 245.69 208.36 245.35 219.85 246.13 231.26 246.09 237.86 246.64 242.67 247.23 245.95 247.21 252.5 247.52 255.74 247.38 260.61 247.53 265.42 247.96 270.22 249.02 275.16 249.31 276.78 249.55 280 249.34 283.12 249.94 284.71 250.06 291.17 249.95 294.4 250.04 298.48 249.77 
M 314.89 249.06 318.21 249.05 321.44 249.48 328.05 249.95 334.53 249.28 341.02 249 344.31 249.03 347.54 249.34 355.69 248.85 360.6 248.79 367.13 248.35 370.3 247.98 371.88 247.63 374.92 246.62 379.65 245.86 384.52 245.31 389.41 244.95 391.04 244.64 398.04 244.68 
M 153.34 252.47 156.63 252.56 159.9 252.98 166.39 253.31 171.36 253.96 177.9 253.34 184.39 253.56 185.95 253.44 189.11 252.77 195.62 252.21 200.41 251.55 207.2 251.25 
M 215.38 251.66 220.28 251.86 230.04 251.91 243.08 252.96 261.15 253.48 
M 282.4 254.98 285.51 255.44 290.25 255.33 293.52 255.52 303.34 255.22 306.61 255.32 309.88 255.01 313.18 255.09 318.09 254.93 326.21 255.68 327.86 255.76 329.7 255.62 
M 334.54 254.82 341.05 254.33 344.33 254.38 347.57 254.81 354.13 254.44 360.72 254.63 363.94 254.52 370.43 253.87 375.13 252.7 379.77 251.79 391.1 250.41 392.7 250.29 396.42 250.35 
M 130.48 258.99 135.37 259.28 145.22 259.25 151.8 259.71 156.68 259.62 166.45 260.31 171.31 260.95 176.24 260.4 181.12 260.29 184.31 260.56 185.95 260.47 189.16 259.77 198.86 258.75 205.4 258.73 210.26 258.42 219.94 258.83 229.77 258.97 241.1 259.84 247.63 259.81 252.51 260.17 264.11 260.34 267.36 260.74 270.51 261.53 273.75 261.71 277.03 262.18 280.26 262.05 283.45 262.75 285.01 262.88 289.8 262.76 294.72 262.96 302.71 262.48 305.94 262.58 310.86 261.79 314.14 261.92 315.8 261.71 319.12 261.76 322.21 262.27 327.07 262.71 336.13 261.98 
M 347.63 262.03 355.91 261.64 365.71 261.71 368.87 261.55 372.01 260.92 375.12 259.95 380.16 259.03 
M 132.21 266.74 137.01 267.3 146.84 267.37 151.88 267.82 156.84 267.9 158.49 268.08 
M 194.33 267.67 199.27 267.03 204.14 266.9 208.9 266.53 220.23 266.76 225.18 266.49 229.95 266.52 233.19 266.67 241.25 267.62 249.29 268.18 265.98 268.25 270.88 269.23 277.21 269.62 280.42 269.48 285.22 270.18 290.05 270 294.92 270.21 301.34 270.15 306.22 270.58 311.09 270.12 314.38 270.22 317.61 270 319.27 270.05 327.43 271.04 332.35 270.59 334 270.29 340.63 269.87 343.9 269.84 347.09 270.09 355.32 269.48 360.24 269.6 366.74 269.26 371.55 268.68 374.6 267.71 379.28 266.73 385.79 266.14 388.32 266.12 
M 143.66 276.57 148.58 276.62 
M 199.32 276.09 208.94 275.68 215.42 275.86 220.31 275.85 225.16 275.6 228.46 275.67 233.28 276 241.4 276.85 251.24 277.21 256.08 277.09 260.99 277.16 265.88 277.63 270.66 278.64 277.08 279.12 280.32 279.06 283.5 279.71 285.13 279.83 290.05 279.72 293.34 279.87 301.46 279.37 306.22 279.67 311.07 279.08 319.21 279.23 327.55 280 337.9 278.92 
M 347.66 278.95 354.19 278.41 362.48 278.18 
M 425.81 221.99 429.07 222.17 429.92 222.43 
M 425.82 222.54 429.06 222.94 435.19 225.27 439.92 226.42 443.03 227.01 
M 425.82 223.08 429.03 223.69 435.01 226.33 438.14 227.34 
M 425.83 223.63 428.99 224.43 431.58 225.66 
M 131.36 174.18 149.22 176.61 163.89 178.14 176.87 179.2 186.63 179.42 212.81 179.14 219.31 178.61 229 177.5 248.5 176.76 267.8 175.18 275.97 174.86 294.2 174.56 300.7 174.18 325.14 171.94 352.35 169.06 363.74 167.49 380.06 164.65 395.96 161.42 416.4 156.48 422.95 155.11 425.86 154.32 
M 425.86 154.32 423.37 173.94 422.55 181.97 420.89 193.23 419.26 201.3 417.64 207.66 416.27 212.4 413.69 219.33 
M 131.36 174.18 131.84 179.02 132.67 183.92 133.97 188.7 135.72 193.23 136.45 194.7 137.95 197.66 140.38 201.86 143.1 205.93 150.05 214.98 154.48 219.82 
M 131.7 177.43 144.72 179.24 157.72 180.63 177.21 182.28 186.96 182.45 213.12 182.23 217.99 181.87 226.01 180.93 230.93 180.52 235.66 180.26 240.67 180.24 247.29 179.97 268.2 178.38 297.79 177.64 325.5 175.28 341.38 173.54 352.77 172.58 359.28 171.72 375.51 169.03 393.25 165.72 425.33 158.58 
M 132.14 180.82 143.58 182.32 156.54 183.65 176.01 185.25 184.2 185.47 211.92 185.36 216.82 185.08 224.81 184.19 231.37 183.65 236.14 183.41 246.1 183.23 263.88 181.83 271.98 181.47 291.78 181.13 298.27 180.88 329.15 178.28 341.9 176.94 353.29 175.97 361.42 174.97 379.36 171.95 398.6 168.45 424.85 162.77 
M 136.3 194.41 154.41 196.08 164.04 196.78 178.63 197.51 193.42 197.71 209.76 197.65 216.2 197.42 230.79 196.2 248.63 195.69 260.24 194.95 278.29 194.35 301.02 193.88 335.22 191.44 349.91 190.17 356.35 189.47 380.53 186.47 409.4 181.84 422.86 179.41 
M 138.04 197.83 167.3 200.09 190.15 200.8 208.11 200.7 216.29 200.47 230.8 199.35 251.99 198.69 263.62 198.04 278.31 197.54 301.03 197.18 335.33 194.85 353.23 193.36 370.93 191.17 378.94 190.36 406.54 186.21 422.32 183.5 
M 140.02 201.2 167.61 203.21 188.81 203.85 198.69 203.7 206.84 203.81 218.26 203.49 234.46 202.38 247.41 202.05 263.96 201.3 283.62 200.66 298.21 200.56 303.05 200.33 332.46 198.45 353.61 196.83 366.59 195.23 379.3 193.95 392.21 192.23 408.67 189.82 421.76 187.62 
M 142.18 204.58 163.29 206.08 177.9 206.68 187.73 206.85 205.82 206.85 218.9 206.52 233.43 205.58 249.71 205.17 282.65 203.91 292.24 203.9 302.11 203.65 316.79 202.63 329.75 202.04 354.22 200.25 363.95 199.07 381.51 197.33 391.28 196.12 411.03 193.46 421.14 191.76 
M 144.65 207.97 160.8 209.05 175.41 209.75 183.59 209.95 206.6 209.94 219.74 209.56 232.62 208.75 247.4 208.48 281.73 207.3 299.58 207.04 307.82 206.64 317.51 205.94 330.52 205.37 355.04 203.71 390.47 200.01 413.56 196.97 420.36 195.92 
M 147.25 211.37 163.39 212.38 176.37 212.9 189.45 213.1 204.21 213.1 215.81 212.86 233.66 211.87 250.04 211.58 279.55 210.61 297.29 210.42 341.48 208.13 352.8 207.36 389.88 203.86 408.12 201.64 419.51 200.07 
M 149.93 214.83 159.7 215.38 177.41 216.07 
M 186.18 216.14 207.37 216.16 219.04 215.8 227.17 215.26 233.65 215.06 248.43 214.83 272.99 214.01 295.65 213.7 303.86 213.42 316.94 212.64 341.45 211.52 354.37 210.73 386.65 207.85 418.5 204.31 
M 152.93 218.22 169.89 218.88 
M 226.41 218.4 247.55 217.97 268.95 217.33 296.55 216.95 347.19 214.55 356.86 214.02 368.17 213.12 404.05 209.83 417.44 208.35 
M 265.93 220.67 286.96 220.25 300.08 220.15 355.45 217.6 370.01 216.6 384.63 215.06 405.9 213.52 416.23 212.53 
M 323.22 222.51 336.14 221.8 354.01 221.19 374.04 219.83 
M 399.59 217.72 407.72 217.27 414.75 216.65 
M 182.82 190.69 184.44 190.67 186.01 191.18 186 192.81 184.72 193.82 183.08 193.82 182.8 192.24 182.82 190.69 
M 183.15 190.69 182.81 191.33 
M 183.79 190.68 182.8 192.62 
M 184.44 190.67 184.13 191.32 
M 183.47 192.6 182.83 193.82 
M 185.09 190.66 184.77 191.34 
M 183.87 193.11 183.5 193.82 
M 185.75 190.66 185.25 191.7 
M 184.45 193.25 184.16 193.83 
M 186.02 191.49 184.8 193.82 
M 186.01 192.79 185.44 193.82 
M 185.43 192.26 184.08 193.18 183.66 191.62 185.43 192.26 
M 184.79 192.26 184.79 192.26 
M 184.18 191.97 184.02 192.27 
M 184.6 191.96 184.28 192.59 
M 199.04 190.65 200.73 190.68 202.28 191.2 202.27 192.84 201 193.88 199.35 193.84 199.03 192.24 199.04 190.65 
M 199.39 190.66 199.03 191.32 
M 200.07 190.68 199.03 192.63 
M 200.73 190.68 200.39 191.34 
M 199.72 192.62 199.1 193.83 
M 201.39 190.69 201.05 191.36 
M 200.14 193.14 199.77 193.85 
M 202.05 190.69 201.52 191.73 
M 200.73 193.3 200.43 193.87 
M 202.28 191.51 201.08 193.88 
M 202.27 192.82 201.73 193.88 
M 201.7 192.29 200.35 193.22 199.9 191.63 201.7 192.29 
M 201.06 192.29 201.06 192.29 
M 200.44 191.99 200.29 192.3 
M 200.87 191.98 200.55 192.62 
M 215.14 190.33 216.76 190.32 218.3 190.85 218.28 192.48 217.02 193.5 215.4 193.5 215.14 191.92 215.14 190.33 
M 215.46 190.33 215.14 190.99 
M 216.11 190.32 215.13 192.3 
M 216.76 190.32 216.44 190.98 
M 215.79 192.27 215.16 193.5 
M 217.4 190.33 217.07 191 
M 216.18 192.79 215.81 193.5 
M 218.06 190.34 217.54 191.36 
M 216.75 192.93 216.46 193.5 
M 218.3 191.16 217.1 193.5 
M 218.28 192.46 217.74 193.5 
M 217.72 191.92 216.39 192.86 215.98 191.28 217.72 191.92 
M 217.09 191.93 217.09 191.93 
M 216.49 191.64 216.34 191.94 
M 216.91 191.63 216.59 192.26 
M 231.3 188.99 232.93 189.01 234.46 189.52 234.46 191.13 233.18 192.15 231.6 192.16 231.32 190.57 231.3 188.99 
M 231.63 188.99 231.31 189.65 
M 232.28 188.99 231.32 190.95 
M 232.93 189.01 232.61 189.65 
M 231.97 190.92 231.36 192.16 
M 233.57 189.02 233.25 189.68 
M 232.35 191.43 232 192.16 
M 234.21 189.02 233.72 190.04 
M 232.91 191.57 232.62 192.15 
M 234.46 189.82 233.26 192.15 
M 234.46 191.11 233.91 192.15 
M 233.89 190.59 232.55 191.5 232.15 189.95 233.89 190.59 
M 233.26 190.59 233.26 190.59 
M 232.66 190.3 232.51 190.59 
M 233.08 190.29 232.75 190.91 
M 247.49 188.49 249.12 188.48 250.63 188.97 250.6 190.58 249.31 191.66 247.66 191.69 247.42 190.06 247.49 188.49 
M 247.82 188.49 247.46 189.14 
M 248.47 188.49 247.41 190.45 
M 249.12 188.48 248.77 189.13 
M 248.06 190.42 247.42 191.69 
M 249.76 188.47 249.41 189.15 
M 248.44 190.94 248.07 191.69 
M 250.41 188.46 249.86 189.5 
M 249.03 191.08 248.73 191.68 
M 250.62 189.27 249.39 191.66 
M 250.6 190.56 250.06 191.63 
M 250.03 190.04 248.65 191.01 248.29 189.43 250.03 190.04 
M 249.39 190.06 249.39 190.06 
M 248.8 189.78 248.63 190.09 
M 249.21 189.76 248.87 190.4 
M 263.74 187.37 265.42 187.42 266.99 187.93 266.99 189.6 265.72 190.65 264.04 190.62 263.76 189 263.74 187.37 
M 264.07 187.38 263.75 188.05 
M 264.75 187.4 263.76 189.39 
M 265.42 187.42 265.1 188.07 
M 264.45 189.38 263.79 190.61 
M 266.09 187.42 265.76 188.1 
M 264.85 189.9 264.46 190.63 
M 266.74 187.41 266.24 188.47 
M 265.44 190.06 265.13 190.64 
M 266.99 188.24 265.8 190.65 
M 266.99 189.58 266.46 190.65 
M 266.43 189.04 265.06 189.98 264.63 188.37 266.43 189.04 
M 265.79 189.04 265.79 189.04 
M 265.17 188.74 265.01 189.05 
M 265.59 188.73 265.27 189.37 
M 280.04 186.97 281.66 186.95 283.23 187.46 283.2 189.08 281.92 190.11 280.26 190.09 280 188.5 280.04 186.97 
M 280.37 186.97 280.02 187.6 
M 281.01 186.96 279.99 188.88 
M 281.66 186.95 281.33 187.59 
M 280.65 188.86 280.02 190.09 
M 282.33 186.95 281.98 187.61 
M 281.05 189.37 280.67 190.09 
M 282.99 186.95 282.45 187.98 
M 281.64 189.53 281.33 190.1 
M 283.23 187.77 282 190.11 
M 283.2 189.06 282.66 190.12 
M 282.64 188.54 281.26 189.45 280.86 187.89 282.64 188.54 
M 281.99 188.53 281.99 188.53 
M 281.38 188.24 281.22 188.54 
M 281.8 188.23 281.47 188.85 
M 296.31 186.63 297.92 186.62 299.49 187.13 299.45 188.74 298.22 189.79 296.6 189.79 296.32 188.2 296.31 186.63 
M 296.63 186.63 296.31 187.28 
M 297.28 186.63 296.32 188.58 
M 297.92 186.62 297.61 187.26 
M 296.99 188.55 296.36 189.8 
M 298.58 186.62 298.25 187.28 
M 297.38 189.05 297.01 189.79 
M 299.24 186.62 298.72 187.64 
M 297.96 189.21 297.66 189.79 
M 299.48 187.42 298.3 189.79 
M 299.45 188.72 298.93 189.79 
M 298.9 188.19 297.59 189.13 297.15 187.56 298.9 188.19 
M 298.28 188.19 298.28 188.19 
M 297.68 187.91 297.53 188.21 
M 298.09 187.89 297.78 188.52 
M 312.54 185.36 314.15 185.36 315.7 185.9 315.72 187.55 314.48 188.57 312.82 188.55 312.54 186.93 312.54 185.36 
M 312.86 185.35 312.54 186.01 
M 313.51 185.35 312.54 187.32 
M 314.15 185.36 313.84 186.01 
M 313.21 187.3 312.57 188.55 
M 314.8 185.37 314.47 186.04 
M 313.6 187.82 313.23 188.55 
M 315.46 185.38 314.94 186.41 
M 314.18 187.97 313.89 188.56 
M 315.7 186.21 314.56 188.58 
M 315.72 187.53 315.21 188.58 
M 315.13 186.98 313.81 187.89 313.38 186.31 315.13 186.98 
M 314.5 186.96 314.5 186.96 
M 313.9 186.67 313.75 186.97 
M 314.31 186.66 314 187.29 
M 328.66 184.2 330.28 184.19 331.79 184.7 331.81 186.36 330.6 187.4 328.98 187.39 328.69 185.78 328.66 184.2 
M 328.99 184.2 328.68 184.85 
M 329.64 184.2 328.69 186.17 
M 330.28 184.19 329.98 184.85 
M 329.36 186.14 328.73 187.39 
M 330.92 184.19 330.61 184.87 
M 329.75 186.66 329.39 187.4 
M 331.55 184.18 331.07 185.23 
M 330.33 186.81 330.03 187.4 
M 331.8 185.01 330.68 187.4 
M 331.81 186.34 331.31 187.4 
M 331.25 185.79 329.96 186.74 329.52 185.15 331.25 185.79 
M 330.64 185.79 330.64 185.79 
M 330.04 185.5 329.9 185.81 
M 330.45 185.49 330.15 186.12 
M 140.34 171.77 151.56 173.2 171.08 175.16 179.17 175.65 185.76 175.82 210.26 175.55 216.84 175.15 228.14 173.87 246.03 173.26 268.53 171.45 290.08 170.98 299.82 170.6 332.25 167.56 349.92 165.67 359.6 164.43 375.84 161.77 388.73 159.3 398.23 157.3 410.78 154.09 416.79 152.77 
M 140.32 175.41 140.34 171.77 
M 145.57 176.11 145.59 172.49 
M 140.32 175.41 145.59 172.49 
M 140.34 171.77 145.57 176.11 
M 150.83 176.79 150.84 173.12 
M 145.57 176.11 150.84 173.12 
M 145.59 172.49 150.83 176.79 
M 156.15 177.35 156.12 173.67 
M 150.83 176.79 156.12 173.67 
M 150.84 173.12 156.15 177.35 
M 161.51 177.9 161.5 174.25 
M 156.15 177.35 161.5 174.25 
M 156.12 173.67 161.51 177.9 
M 166.78 178.39 166.73 174.77 
M 161.51 177.9 166.73 174.77 
M 161.5 174.25 166.78 178.39 
M 172.06 178.85 172.03 175.24 
M 166.78 178.39 172.03 175.24 
M 166.73 174.77 172.06 178.85 
M 177.38 179.24 177.29 175.56 
M 172.06 178.85 177.29 175.56 
M 172.03 175.24 177.38 179.24 
M 182.65 179.4 182.63 175.77 
M 177.38 179.24 182.63 175.77 
M 177.29 175.56 182.65 179.4 
M 187.98 179.43 187.95 175.8 
M 182.65 179.4 187.95 175.8 
M 182.63 175.77 187.98 179.43 
M 193.33 179.33 193.32 175.72 
M 187.98 179.43 193.32 175.72 
M 187.95 175.8 193.33 179.33 
M 198.62 179.27 198.6 175.61 
M 193.33 179.33 198.6 175.61 
M 193.32 175.72 198.62 179.27 
M 203.87 179.29 203.81 175.62 
M 198.62 179.27 203.81 175.62 
M 198.6 175.61 203.87 179.29 
M 209.17 179.26 209.19 175.6 
M 203.87 179.29 209.19 175.6 
M 203.81 175.62 209.17 179.26 
M 214.54 179.05 214.5 175.31 
M 209.17 179.26 214.5 175.31 
M 209.19 175.6 214.54 179.05 
M 219.82 178.56 219.85 174.8 
M 214.54 179.05 219.85 174.8 
M 214.5 175.31 219.82 178.56 
M 225.05 177.85 225.02 174.25 
M 219.82 178.56 225.02 174.25 
M 219.85 174.8 225.05 177.85 
M 230.39 177.4 230.45 173.73 
M 225.05 177.85 230.45 173.73 
M 225.02 174.25 230.39 177.4 
M 235.6 177.18 235.67 173.51 
M 230.39 177.4 235.67 173.51 
M 230.45 173.73 235.6 177.18 
M 240.92 177.1 240.91 173.47 
M 235.6 177.18 240.91 173.47 
M 235.67 173.51 240.92 177.1 
M 246.27 176.91 246.27 173.25 
M 240.92 177.1 246.27 173.25 
M 240.91 173.47 246.27 176.91 
M 251.55 176.57 251.55 172.9 
M 246.27 176.91 251.55 172.9 
M 246.27 173.25 251.55 176.57 
M 256.77 176.1 256.8 172.45 
M 251.55 176.57 256.8 172.45 
M 251.55 172.9 256.77 176.1 
M 262 175.59 262.01 171.96 
M 256.77 176.1 262.01 171.96 
M 256.8 172.45 262 175.59 
M 267.22 175.21 267.21 171.53 
M 262 175.59 267.21 171.53 
M 262.01 171.96 267.22 175.21 
M 272.53 174.97 272.47 171.33 
M 267.22 175.21 272.47 171.33 
M 267.21 171.53 272.53 174.97 
M 277.86 174.82 277.9 171.22 
M 272.53 174.97 277.9 171.22 
M 272.47 171.33 277.86 174.82 
M 283.32 174.79 283.28 171.07 
M 277.86 174.82 283.28 171.07 
M 277.9 171.22 283.32 174.79 
M 288.71 174.67 288.71 171.01 
M 283.32 174.79 288.71 171.01 
M 283.28 171.07 288.71 174.67 
M 294.02 174.57 293.95 170.86 
M 288.71 174.67 293.95 170.86 
M 288.71 171.01 294.02 174.57 
M 299.28 174.28 299.26 170.63 
M 294.02 174.57 299.26 170.63 
M 293.95 170.86 299.28 174.28 
M 304.63 173.85 304.58 170.13 
M 299.28 174.28 304.58 170.13 
M 299.26 170.63 304.63 173.85 
M 309.95 173.27 309.95 169.59 
M 304.63 173.85 309.95 169.59 
M 304.58 170.13 309.95 173.27 
M 315.24 172.78 315.25 169.07 
M 309.95 173.27 315.25 169.07 
M 309.95 169.59 315.24 172.78 
M 320.54 172.35 320.57 168.68 
M 315.24 172.78 320.57 168.68 
M 315.25 169.07 320.54 172.35 
M 325.86 171.87 325.89 168.2 
M 320.54 172.35 325.89 168.2 
M 320.57 168.68 325.86 171.87 
M 331.03 171.3 331.05 167.65 
M 325.86 171.87 331.05 167.65 
M 325.89 168.2 331.03 171.3 
M 336.14 170.76 336.15 167.12 
M 331.03 171.3 336.15 167.12 
M 331.05 167.65 336.14 170.76 
M 341.31 170.14 341.41 166.51 
M 336.14 170.76 341.41 166.51 
M 336.15 167.12 341.31 170.14 
M 346.75 169.65 346.79 165.95 
M 341.31 170.14 346.79 165.95 
M 341.41 166.51 346.75 169.65 
M 352 169.1 352 165.36 
M 346.75 169.65 352 165.36 
M 346.79 165.95 352 169.1 
M 357.31 168.46 357.31 164.75 
M 352 169.1 357.31 164.75 
M 352 165.36 357.31 168.46 
M 362.67 167.66 362.61 163.96 
M 357.31 168.46 362.61 163.96 
M 357.31 164.75 362.67 167.66 
M 367.96 166.74 367.94 163.07 
M 362.67 167.66 367.94 163.07 
M 362.61 163.96 367.96 166.74 
M 373.35 165.83 373.33 162.2 
M 367.96 166.74 373.33 162.2 
M 367.94 163.07 373.35 165.83 
M 378.79 164.88 378.72 161.24 
M 373.35 165.83 378.72 161.24 
M 373.33 162.2 378.79 164.88 
M 384.16 163.83 384.08 160.19 
M 378.79 164.88 384.08 160.19 
M 378.72 161.24 384.16 163.83 
M 389.36 162.76 389.35 159.15 
M 384.16 163.83 389.35 159.15 
M 384.08 160.19 389.36 162.76 
M 394.66 161.69 394.67 158.06 
M 389.36 162.76 394.67 158.06 
M 389.35 159.15 394.66 161.69 
M 399.87 160.49 399.85 156.92 
M 394.66 161.69 399.85 156.92 
M 394.67 158.06 399.87 160.49 
M 405.07 159.25 405.04 155.58 
M 399.87 160.49 405.04 155.58 
M 399.85 156.92 405.07 159.25 
M 410.28 157.96 410.28 154.21 
M 405.07 159.25 410.28 154.21 
M 405.04 155.58 410.28 157.96 
M 415.56 156.67 415.58 153.02 
M 410.28 157.96 415.58 153.02 
M 410.28 154.21 415.56 156.67 
M 137.32 174.94 128.2 171.09 120.74 168.16 117.71 166.8 97.1 156.62 86.37 151.03 
M 143.1 175.75 114.78 162.95 86.96 149.78 
M 86.37 151.03 86.96 149.78 
M 416.24 156.52 416.35 143.06 
M 413.16 143.11 418.08 143.06 419.43 142.19 418.99 137.3 418.72 135.72 415.46 135.72 413.9 136.31 413.16 143.11 
M 412.99 135.69 416.42 132.17 419.86 135.72 
M 416.35 143.06 416.3 139.75 416.47 135.73 
M 413.99 134.66 413.44 135.69 
M 415.46 133.2 414.11 135.7 
M 416.61 132.19 414.78 135.71 
M 417.04 132.66 415.44 135.72 
M 417.46 133.11 416.1 135.72 
M 417.86 133.56 416.76 135.73 
M 418.28 134 417.41 135.73 
M 418.69 134.45 418.05 135.72 
M 419.11 134.9 418.7 135.72 
M 419.53 135.35 419.34 135.71 
M 110.33 163.22 110.5 173.81 
M 110.5 173.81 103.47 166.83 90.35 153.15 
M 110.5 173.81 130.58 194.96 144.37 208.93 152.94 218.24 
M 371.74 159.33 374.42 165.64 
M 343.87 83.02 341.73 132.13 341.27 155.04 340.16 169.64 
M 343.87 83.02 349.12 115.27 350.31 123.42 355.18 150.93 357.85 167.72 
M 343.71 86.27 344.37 86.26 
M 343.58 88.72 344.75 88.71 
M 343.47 91.17 345.17 91.17 
M 343.37 93.62 345.58 93.6 
M 343.25 95.99 346 96.01 
M 343.2 98.36 346.39 98.41 
M 343.1 100.77 346.74 100.83 
M 343 103.22 347.14 103.27 
M 342.89 105.68 347.53 105.73 
M 342.78 108.2 347.95 108.18 
M 342.68 110.73 348.38 110.64 
M 342.58 113.21 348.82 113.17 
M 342.48 115.72 349.26 115.71 
M 342.36 118.16 349.61 118.18 
M 342.26 120.63 349.94 120.66 
M 342.14 123.1 350.33 123.13 
M 342.02 125.56 350.78 125.65 
M 341.93 128.03 345.23 128.19 351.21 128.09 
M 341.79 130.51 351.59 130.52 
M 341.7 132.99 345.02 133.1 352.01 132.96 
M 341.65 135.43 352.43 135.44 
M 341.6 137.85 346.58 138.01 352.86 137.91 
M 341.57 140.32 353.32 140.36 
M 341.56 142.79 349.76 142.95 353.74 142.83 
M 341.57 145.33 348.13 145.46 354.18 145.31 
M 341.49 147.74 348.1 147.92 354.62 147.76 
M 341.42 150.2 348.06 150.32 355.05 150.21 
M 341.35 152.66 355.44 152.66 
M 341.28 155.1 355.79 155.07 
M 341.12 157.51 356.16 157.47 
M 340.95 159.89 347.41 160.03 356.51 159.87 
M 340.75 162.34 356.89 162.33 
M 340.57 164.7 357.27 164.79 
M 340.35 167.09 357.67 167.26 
M 256.48 41.26 261.22 40.41 267.52 39.03 277.06 36.91 281.14 35.82 
M 306.04 41.96 295 39.09 281.14 35.82 
M 250.07 81.65 266.2 79.28 281.18 76.46 
M 312.29 82.78 281.18 76.46 
M 241.69 122 252.98 120.82 280.52 116.93 
M 319.26 123.44 312.75 122.62 303.09 121.13 288.67 118.55 280.52 116.93 
M 271.7 126.98 288.72 127 
M 272.45 86.62 282.28 86.65 289.59 86.35 
M 272.65 46.03 279.17 46.2 289.7 45.89 
M 280.22 125.43 276.57 156.44 274.01 174.27 
M 280.22 125.43 282.04 154.87 282.57 168.04 283 174.14 
M 280.22 125.43 282.81 136.64 287.87 157.24 288.52 160.44 291.95 173.97 
M 280.22 125.43 290.19 149.48 300.71 173.54 
M 279.83 128.65 281.61 128.67 
M 279.54 131.14 282.63 131.18 
M 279.25 133.61 283.61 133.64 
M 278.93 136.09 284.64 136.13 
M 278.62 138.64 285.73 138.57 
M 278.31 141.1 286.77 140.98 
M 278.03 143.57 287.75 143.41 
M 277.8 146.03 282.7 146.04 288.75 145.83 
M 277.51 148.44 289.73 148.23 
M 277.25 150.86 290.74 150.64 
M 276.93 153.33 291.8 153.11 
M 276.67 155.85 292.88 155.6 
M 276.32 158.32 282.86 158.38 293.92 158.08 
M 275.95 160.79 280.88 160.84 294.95 160.57 
M 275.6 163.26 283.83 163.31 296.01 163.05 
M 275.24 165.68 283.49 165.76 297.05 165.54 
M 274.89 168.03 286.51 168.26 298.07 168.03 
M 274.56 170.43 286.25 170.68 299.14 170.53 
M 177.11 65.7 188.59 64.18 207.4 61.14 
M 237.22 66.7 227.52 65.11 207.4 61.14 
M 168.81 134.37 178.68 133.53 206.58 130.17 
M 244.12 135.86 231.18 134.11 206.58 130.17 
M 197.77 138.81 207.5 138.95 214.79 138.74 
M 198.74 69.67 206.76 69.82 215.72 69.68 
M 206.34 137.54 202.9 163.33 200.65 178.63 
M 206.34 137.54 209.45 178.58 
M 206.34 137.54 213.53 162.75 216.03 170.4 218.33 178.08 
M 206.34 137.54 209.23 143.41 217.54 159.28 227.07 177 
M 205.91 140.83 207.97 140.84 
M 205.58 143.32 209.21 143.3 
M 205.25 145.81 210.51 145.76 
M 204.89 148.32 211.79 148.12 
M 204.58 150.77 213.04 150.53 
M 204.23 153.2 214.32 152.99 
M 203.89 155.59 215.59 155.46 
M 203.58 157.95 210.1 158.06 216.82 157.89 
M 203.29 160.35 212.99 160.58 218.07 160.32 
M 203.01 162.78 212.62 163.05 219.37 162.72 
M 202.64 165.2 212.32 165.45 220.67 165.15 
M 202.29 167.63 213.72 167.92 221.96 167.55 
M 201.92 170.1 211.76 170.33 223.19 169.99 
M 201.54 172.56 209.77 172.68 224.39 172.48 
M 201.19 174.95 209.42 175.1 225.63 174.95 
M 425.86 153.66 429.08 144.39 433.52 130.28 437.9 117.47 
M 359.67 139.06 369.42 138.62 387.21 135.4 393.58 134.02 415.98 128.68 425.71 126.2 
M 361.2 145.18 369.26 144.66 382.18 142.49 391.83 140.52 399.76 138.53 413.24 135.43 
M 418.48 134.23 425.71 132.32 
M 362.58 151.31 369.18 150.84 371.97 150.38 
M 374.35 149.95 380.92 148.74 
M 383.22 148.29 389.77 146.95 
M 392.03 146.49 398.57 145.02 
M 400.76 144.48 407.4 142.87 
M 409.61 142.39 413.33 141.55 
M 419.2 140.12 425.69 138.48 
M 364.1 157.37 370.63 156.79 388.41 153.37 399.33 151.11 407.25 149.01 425.79 144.68 
M 365.49 163.43 370.42 162.87 375.33 162.02 394.65 158.23 400.89 156.83 411.87 153.99 425.84 150.78 
M 371.11 150.38 371.05 148.71 371.47 147.13 372.99 146.47 374.31 147.52 374.34 149.17 373.23 150.37 371.11 150.38 
M 380.01 148.73 379.96 147.11 380.38 145.58 381.85 144.94 383.13 145.94 383.19 147.55 382.13 148.74 380.01 148.73 
M 388.81 146.95 388.77 145.35 389.22 143.84 390.72 143.17 392 144.16 392.02 145.76 390.94 146.97 388.81 146.95 
M 397.6 145.05 397.61 143.37 398.01 141.75 399.48 141.04 400.75 142.08 400.76 143.74 399.67 145 397.6 145.05 
M 406.39 142.89 406.45 141.24 406.9 139.65 408.41 138.97 409.64 140.03 409.63 141.68 408.5 142.87 406.39 142.89 
M 358.43 133.8 369.79 133.29 384.45 130.65 395.52 128.31 416.4 123.4 424.17 121.43 425.67 122.03 425.85 153.14 425.85 154.79 425.63 156.04 
M 366.41 167.03 358.43 133.8 
M 358.45 130.34 372.81 127.58 390.73 124.51 409.97 120.53 425.7 117.75 
M 358.43 133.8 358.45 130.34 
M 359.62 133.55 359.67 130.1 
M 358.43 133.8 359.67 130.1 
M 358.45 130.34 359.62 133.55 
M 360.81 133.3 360.87 129.84 
M 359.62 133.55 360.87 129.84 
M 359.67 130.1 360.81 133.3 
M 362.01 133.07 362.06 129.6 
M 360.81 133.3 362.06 129.6 
M 360.87 129.84 362.01 133.07 
M 363.21 132.85 363.25 129.37 
M 362.01 133.07 363.25 129.37 
M 362.06 129.6 363.21 132.85 
M 364.42 132.63 364.48 129.16 
M 363.21 132.85 364.48 129.16 
M 363.25 129.37 364.42 132.63 
M 365.64 132.4 365.69 128.91 
M 364.42 132.63 365.69 128.91 
M 364.48 129.16 365.64 132.4 
M 366.85 132.17 366.92 128.67 
M 365.64 132.4 366.92 128.67 
M 365.69 128.91 366.85 132.17 
M 368.08 131.95 368.14 128.45 
M 366.85 132.17 368.14 128.45 
M 366.92 128.67 368.08 131.95 
M 369.28 131.74 369.32 128.24 
M 368.08 131.95 369.32 128.24 
M 368.14 128.45 369.28 131.74 
M 370.48 131.52 370.52 128.04 
M 369.28 131.74 370.52 128.04 
M 369.32 128.24 370.48 131.52 
M 371.69 131.28 371.71 127.8 
M 370.48 131.52 371.71 127.8 
M 370.52 128.04 371.69 131.28 
M 372.89 131.03 372.88 127.57 
M 371.69 131.28 372.88 127.57 
M 371.71 127.8 372.89 131.03 
M 374.09 130.82 374.07 127.37 
M 372.89 131.03 374.07 127.37 
M 372.88 127.57 374.09 130.82 
M 375.3 130.63 375.29 127.18 
M 374.09 130.82 375.29 127.18 
M 374.07 127.37 375.3 130.63 
M 376.52 130.42 376.52 126.97 
M 375.3 130.63 376.52 126.97 
M 375.29 127.18 376.52 130.42 
M 377.76 130.21 377.74 126.76 
M 376.52 130.42 377.74 126.76 
M 376.52 126.97 377.76 130.21 
M 379.01 130 378.99 126.58 
M 377.76 130.21 378.99 126.58 
M 377.74 126.76 379.01 130 
M 380.24 129.78 380.22 126.37 
M 379.01 130 380.22 126.37 
M 378.99 126.58 380.24 129.78 
M 381.47 129.56 381.44 126.15 
M 380.24 129.78 381.44 126.15 
M 380.22 126.37 381.47 129.56 
M 382.71 129.35 382.69 125.94 
M 381.47 129.56 382.69 125.94 
M 381.44 126.15 382.71 129.35 
M 383.97 129.16 383.95 125.72 
M 382.71 129.35 383.95 125.72 
M 382.69 125.94 383.97 129.16 
M 385.23 128.96 385.21 125.5 
M 383.97 129.16 385.21 125.5 
M 383.95 125.72 385.23 128.96 
M 386.46 128.71 386.44 125.27 
M 385.23 128.96 386.44 125.27 
M 385.21 125.5 386.46 128.71 
M 387.68 128.47 387.68 125.06 
M 386.46 128.71 387.68 125.06 
M 386.44 125.27 387.68 128.47 
M 388.89 128.24 388.89 124.84 
M 387.68 128.47 388.89 124.84 
M 387.68 125.06 388.89 128.24 
M 390.07 128 390.09 124.63 
M 388.89 128.24 390.09 124.63 
M 388.89 124.84 390.07 128 
M 391.25 127.78 391.29 124.4 
M 390.07 128 391.29 124.4 
M 390.09 124.63 391.25 127.78 
M 392.42 127.55 392.48 124.15 
M 391.25 127.78 392.48 124.15 
M 391.29 124.4 392.42 127.55 
M 393.61 127.33 393.67 123.92 
M 392.42 127.55 393.67 123.92 
M 392.48 124.15 393.61 127.33 
M 394.79 127.1 394.86 123.68 
M 393.61 127.33 394.86 123.68 
M 393.67 123.92 394.79 127.1 
M 395.96 126.85 396.03 123.43 
M 394.79 127.1 396.03 123.43 
M 394.86 123.68 395.96 126.85 
M 397.15 126.59 397.22 123.16 
M 395.96 126.85 397.22 123.16 
M 396.03 123.43 397.15 126.59 
M 398.37 126.33 398.41 122.9 
M 397.15 126.59 398.41 122.9 
M 397.22 123.16 398.37 126.33 
M 399.6 126.06 399.62 122.65 
M 398.37 126.33 399.62 122.65 
M 398.41 122.9 399.6 126.06 
M 400.81 125.8 400.84 122.39 
M 399.6 126.06 400.84 122.39 
M 399.62 122.65 400.81 125.8 
M 402.02 125.55 402.09 122.14 
M 400.81 125.8 402.09 122.14 
M 400.84 122.39 402.02 125.55 
M 403.26 125.32 403.31 121.9 
M 402.02 125.55 403.31 121.9 
M 402.09 122.14 403.26 125.32 
M 404.52 125.07 404.54 121.67 
M 403.26 125.32 404.54 121.67 
M 403.31 121.9 404.52 125.07 
M 405.76 124.82 405.76 121.43 
M 404.52 125.07 405.76 121.43 
M 404.54 121.67 405.76 124.82 
M 406.98 124.61 406.96 121.16 
M 405.76 124.82 406.96 121.16 
M 405.76 121.43 406.98 124.61 
M 408.2 124.37 408.18 120.89 
M 406.98 124.61 408.18 120.89 
M 406.96 121.16 408.2 124.37 
M 409.44 124.11 409.41 120.64 
M 408.2 124.37 409.41 120.64 
M 408.18 120.89 409.44 124.11 
M 410.68 123.86 410.65 120.41 
M 409.44 124.11 410.65 120.41 
M 409.41 120.64 410.68 123.86 
M 411.9 123.63 411.85 120.18 
M 410.68 123.86 411.85 120.18 
M 410.65 120.41 411.9 123.63 
M 413.11 123.4 413.04 119.95 
M 411.9 123.63 413.04 119.95 
M 411.85 120.18 413.11 123.4 
M 414.3 123.18 414.24 119.73 
M 413.11 123.4 414.24 119.73 
M 413.04 119.95 414.3 123.18 
M 415.51 122.98 415.45 119.54 
M 414.3 123.18 415.45 119.54 
M 414.24 119.73 415.51 122.98 
M 416.71 122.78 416.65 119.35 
M 415.51 122.98 416.65 119.35 
M 415.45 119.54 416.71 122.78 
M 417.9 122.54 417.84 119.13 
M 416.71 122.78 417.84 119.13 
M 416.65 119.35 417.9 122.54 
M 419.08 122.29 419.03 118.89 
M 417.9 122.54 419.03 118.89 
M 417.84 119.13 419.08 122.29 
M 420.25 122.05 420.23 118.68 
M 419.08 122.29 420.23 118.68 
M 419.03 118.89 420.25 122.05 
M 421.43 121.83 421.43 118.5 
M 420.25 122.05 421.43 118.5 
M 420.23 118.68 421.43 121.83 
M 422.62 121.59 422.61 118.29 
M 421.43 121.83 422.61 118.29 
M 421.43 118.5 422.62 121.59 
M 423.82 121.39 423.83 118.08 
M 422.62 121.59 423.83 118.08 
M 422.61 118.29 423.82 121.39 
M 425 121.19 425.04 117.88 
M 423.82 121.39 425.04 117.88 
M 423.83 118.08 425 121.19 
M 391.42 108.56 399.39 107.86 413.81 104.73 425.8 101.7 
M 392.48 112.94 398.92 112.37 400.51 112.05 417.94 108.06 425.79 106.04 
M 393.48 117.41 398.3 116.85 400.64 116.43 
M 403.77 115.68 409.38 114.29 
M 412.56 113.52 418.23 112.29 
M 421.47 111.54 425.83 110.43 
M 394.48 121.8 399.25 121.03 425.73 114.81 
M 395.37 126.14 400.21 125.14 425.68 119.11 
M 400.64 116.72 400.63 115.08 401.06 113.48 402.51 112.75 403.77 113.81 403.77 115.47 402.72 116.7 400.64 116.72 
M 409.38 114.56 409.41 112.93 409.83 111.34 411.3 110.68 412.57 111.71 412.56 113.32 411.44 114.54 409.38 114.56 
M 418.22 112.54 418.24 110.94 418.67 109.37 420.17 108.7 421.47 109.73 421.47 111.37 420.35 112.55 418.22 112.54 
M 390.47 104.81 398.5 104.21 403.34 103.32 411.4 101.59 425.73 98.06 425.83 109.41 425.67 121.09 
M 395.84 128.24 393.81 118.72 390.47 104.81 
M 390.48 101.38 411.29 97.49 425.79 94.58 
M 390.47 104.81 390.48 101.38 
M 391.11 104.71 391.12 101.28 
M 390.47 104.81 391.12 101.28 
M 390.48 101.38 391.11 104.71 
M 391.74 104.61 391.75 101.17 
M 391.11 104.71 391.75 101.17 
M 391.12 101.28 391.74 104.61 
M 392.37 104.5 392.39 101.07 
M 391.74 104.61 392.39 101.07 
M 391.75 101.17 392.37 104.5 
M 392.99 104.39 393.02 100.95 
M 392.37 104.5 393.02 100.95 
M 392.39 101.07 392.99 104.39 
M 393.61 104.27 393.66 100.84 
M 392.99 104.39 393.66 100.84 
M 393.02 100.95 393.61 104.27 
M 394.24 104.15 394.28 100.72 
M 393.61 104.27 394.28 100.72 
M 393.66 100.84 394.24 104.15 
M 394.88 104.02 394.89 100.58 
M 394.24 104.15 394.89 100.58 
M 394.28 100.72 394.88 104.02 
M 395.51 103.88 395.5 100.45 
M 394.88 104.02 395.5 100.45 
M 394.89 100.58 395.51 103.88 
M 396.13 103.73 396.13 100.31 
M 395.51 103.88 396.13 100.31 
M 395.5 100.45 396.13 103.73 
M 396.75 103.59 396.75 100.18 
M 396.13 103.73 396.75 100.18 
M 396.13 100.31 396.75 103.59 
M 397.36 103.45 397.38 100.04 
M 396.75 103.59 397.38 100.04 
M 396.75 100.18 397.36 103.45 
M 397.97 103.3 398.03 99.91 
M 397.36 103.45 398.03 99.91 
M 397.38 100.04 397.97 103.3 
M 398.6 103.17 398.66 99.77 
M 397.97 103.3 398.66 99.77 
M 398.03 99.91 398.6 103.17 
M 399.23 103.04 399.3 99.64 
M 398.6 103.17 399.3 99.64 
M 398.66 99.77 399.23 103.04 
M 399.86 102.92 399.93 99.53 
M 399.23 103.04 399.93 99.53 
M 399.3 99.64 399.86 102.92 
M 400.5 102.81 400.56 99.41 
M 399.86 102.92 400.56 99.41 
M 399.93 99.53 400.5 102.81 
M 401.14 102.71 401.2 99.3 
M 400.5 102.81 401.2 99.3 
M 400.56 99.41 401.14 102.71 
M 401.78 102.61 401.83 99.18 
M 401.14 102.71 401.83 99.18 
M 401.2 99.3 401.78 102.61 
M 402.43 102.51 402.46 99.07 
M 401.78 102.61 402.46 99.07 
M 401.83 99.18 402.43 102.51 
M 403.08 102.4 403.11 98.96 
M 402.43 102.51 403.11 98.96 
M 402.46 99.07 403.08 102.4 
M 403.74 102.29 403.76 98.87 
M 403.08 102.4 403.76 98.87 
M 403.11 98.96 403.74 102.29 
M 404.39 102.17 404.4 98.76 
M 403.74 102.29 404.4 98.76 
M 403.76 98.87 404.39 102.17 
M 405.03 102.05 405.04 98.65 
M 404.39 102.17 405.04 98.65 
M 404.4 98.76 405.03 102.05 
M 405.67 101.93 405.67 98.53 
M 405.03 102.05 405.67 98.53 
M 405.04 98.65 405.67 101.93 
M 406.3 101.8 406.29 98.4 
M 405.67 101.93 406.29 98.4 
M 405.67 98.53 406.3 101.8 
M 406.92 101.68 406.92 98.27 
M 406.3 101.8 406.92 98.27 
M 406.29 98.4 406.92 101.68 
M 407.56 101.57 407.55 98.14 
M 406.92 101.68 407.55 98.14 
M 406.92 98.27 407.56 101.57 
M 408.21 101.46 408.18 98.02 
M 407.56 101.57 408.18 98.02 
M 407.55 98.14 408.21 101.46 
M 408.85 101.34 408.83 97.91 
M 408.21 101.46 408.83 97.91 
M 408.18 98.02 408.85 101.34 
M 409.5 101.23 409.47 97.8 
M 408.85 101.34 409.47 97.8 
M 408.83 97.91 409.5 101.23 
M 410.15 101.12 410.12 97.69 
M 409.5 101.23 410.12 97.69 
M 409.47 97.8 410.15 101.12 
M 410.79 101 410.76 97.58 
M 410.15 101.12 410.76 97.58 
M 410.12 97.69 410.79 101 
M 411.43 100.88 411.4 97.46 
M 410.79 101 411.4 97.46 
M 410.76 97.58 411.43 100.88 
M 412.06 100.76 412.04 97.34 
M 411.43 100.88 412.04 97.34 
M 411.4 97.46 412.06 100.76 
M 412.7 100.63 412.68 97.21 
M 412.06 100.76 412.68 97.21 
M 412.04 97.34 412.7 100.63 
M 413.33 100.49 413.32 97.08 
M 412.7 100.63 413.32 97.08 
M 412.68 97.21 413.33 100.49 
M 413.97 100.35 413.96 96.93 
M 413.33 100.49 413.96 96.93 
M 413.32 97.08 413.97 100.35 
M 414.61 100.21 414.6 96.79 
M 413.97 100.35 414.6 96.79 
M 413.96 96.93 414.61 100.21 
M 415.24 100.06 415.24 96.65 
M 414.61 100.21 415.24 96.65 
M 414.6 96.79 415.24 100.06 
M 415.89 99.91 415.87 96.5 
M 415.24 100.06 415.87 96.5 
M 415.24 96.65 415.89 99.91 
M 416.53 99.77 416.51 96.36 
M 415.89 99.91 416.51 96.36 
M 415.87 96.5 416.53 99.77 
M 417.17 99.64 417.15 96.23 
M 416.53 99.77 417.15 96.23 
M 416.51 96.36 417.17 99.64 
M 417.81 99.51 417.78 96.11 
M 417.17 99.64 417.78 96.11 
M 417.15 96.23 417.81 99.51 
M 418.45 99.38 418.41 95.99 
M 417.81 99.51 418.41 95.99 
M 417.78 96.11 418.45 99.38 
M 419.1 99.26 419.05 95.88 
M 418.45 99.38 419.05 95.88 
M 418.41 95.99 419.1 99.26 
M 419.74 99.15 419.69 95.77 
M 419.1 99.26 419.69 95.77 
M 419.05 95.88 419.74 99.15 
M 420.38 99.03 420.33 95.65 
M 419.74 99.15 420.33 95.65 
M 419.69 95.77 420.38 99.03 
M 421.01 98.92 420.97 95.53 
M 420.38 99.03 420.97 95.53 
M 420.33 95.65 421.01 98.92 
M 421.65 98.83 421.62 95.41 
M 421.01 98.92 421.62 95.41 
M 420.97 95.53 421.65 98.83 
M 422.28 98.72 422.25 95.28 
M 421.65 98.83 422.25 95.28 
M 421.62 95.41 422.28 98.72 
M 422.91 98.6 422.89 95.14 
M 422.28 98.72 422.89 95.14 
M 422.25 95.28 422.91 98.6 
M 423.55 98.47 423.52 95.01 
M 422.91 98.6 423.52 95.01 
M 422.89 95.14 423.55 98.47 
M 424.19 98.35 424.16 94.89 
M 423.55 98.47 424.16 94.89 
M 423.52 95.01 424.19 98.35 
M 424.83 98.23 424.8 94.77 
M 424.19 98.35 424.8 94.77 
M 424.16 94.89 424.83 98.23 
M 425.46 98.11 425.44 94.65 
M 424.83 98.23 425.44 94.65 
M 424.8 94.77 425.46 98.11 
M 131.37 157.83 144.27 159.77 163.84 161.73 170.9 162.03 
M 131.41 161.43 144.22 163.51 163.83 165.44 170.08 165.81 
M 131.4 165.11 135.74 165.84 
M 138.9 166.36 144.53 167.2 
M 147.77 167.54 153.41 168.11 
M 156.58 168.43 169.23 169.52 
M 131.43 168.87 141.19 170.37 149.23 171.41 163.85 172.94 168.32 173.23 
M 131.37 172.64 131.79 172.71 
M 138.41 173.61 151.24 175.32 167.48 176.91 
M 135.75 166.88 135.72 165.26 136.1 163.67 137.58 163.05 138.85 164.14 138.88 165.77 137.81 166.93 135.75 166.88 
M 144.57 168.2 144.51 166.61 144.88 165.06 146.37 164.38 147.69 165.37 147.74 166.97 146.64 168.17 144.57 168.2 
M 153.4 169.11 153.41 167.47 153.84 165.9 155.34 165.25 156.6 166.26 156.57 167.89 155.49 169.1 153.4 169.11 
M 131.4 154.69 149.19 157.17 162.14 158.47 170.29 158.78 171.29 160.06 167.15 178.42 
M 131.53 175.8 131.37 172.52 
M 131.39 170.43 131.4 154.69 
M 131.39 151.23 142.68 152.37 154.06 153.76 171.54 155.42 
M 131.4 154.69 131.39 151.23 
M 132.12 154.76 132.12 151.3 
M 131.4 154.69 132.12 151.3 
M 131.39 151.23 132.12 154.76 
M 132.85 154.82 132.86 151.38 
M 132.12 154.76 132.86 151.38 
M 132.12 151.3 132.85 154.82 
M 133.57 154.87 133.6 151.45 
M 132.85 154.82 133.6 151.45 
M 132.86 151.38 133.57 154.87 
M 134.29 154.94 134.33 151.51 
M 133.57 154.87 134.33 151.51 
M 133.6 151.45 134.29 154.94 
M 135 155 135.05 151.58 
M 134.29 154.94 135.05 151.58 
M 134.33 151.51 135 155 
M 135.7 155.08 135.76 151.65 
M 135 155 135.76 151.65 
M 135.05 151.58 135.7 155.08 
M 136.41 155.16 136.48 151.73 
M 135.7 155.08 136.48 151.73 
M 135.76 151.65 136.41 155.16 
M 137.12 155.24 137.2 151.81 
M 136.41 155.16 137.2 151.81 
M 136.48 151.73 137.12 155.24 
M 137.84 155.32 137.92 151.89 
M 137.12 155.24 137.92 151.89 
M 137.2 151.81 137.84 155.32 
M 138.56 155.4 138.63 151.96 
M 137.84 155.32 138.63 151.96 
M 137.92 151.89 138.56 155.4 
M 139.29 155.47 139.33 152.03 
M 138.56 155.4 139.33 152.03 
M 138.63 151.96 139.29 155.47 
M 140.02 155.55 140.04 152.1 
M 139.29 155.47 140.04 152.1 
M 139.33 152.03 140.02 155.55 
M 140.76 155.63 140.75 152.18 
M 140.02 155.55 140.75 152.18 
M 140.04 152.1 140.76 155.63 
M 141.49 155.71 141.47 152.26 
M 140.76 155.63 141.47 152.26 
M 140.75 152.18 141.49 155.71 
M 142.23 155.79 142.18 152.33 
M 141.49 155.71 142.18 152.33 
M 141.47 152.26 142.23 155.79 
M 142.95 155.87 142.9 152.4 
M 142.23 155.79 142.9 152.4 
M 142.18 152.33 142.95 155.87 
M 143.68 155.96 143.62 152.48 
M 142.95 155.87 143.62 152.48 
M 142.9 152.4 143.68 155.96 
M 144.4 156.05 144.35 152.57 
M 143.68 155.96 144.35 152.57 
M 143.62 152.48 144.4 156.05 
M 145.13 156.13 145.09 152.66 
M 144.4 156.05 145.09 152.66 
M 144.35 152.57 145.13 156.13 
M 145.85 156.22 145.83 152.77 
M 145.13 156.13 145.83 152.77 
M 145.09 152.66 145.85 156.22 
M 146.57 156.3 146.55 152.86 
M 145.85 156.22 146.55 152.86 
M 145.83 152.77 146.57 156.3 
M 147.3 156.39 147.26 152.96 
M 146.57 156.3 147.26 152.96 
M 146.55 152.86 147.3 156.39 
M 148.04 156.46 147.98 153.06 
M 147.3 156.39 147.98 153.06 
M 147.26 152.96 148.04 156.46 
M 148.77 156.54 148.69 153.15 
M 148.04 156.46 148.69 153.15 
M 147.98 153.06 148.77 156.54 
M 149.5 156.62 149.42 153.24 
M 148.77 156.54 149.42 153.24 
M 148.69 153.15 149.5 156.62 
M 150.22 156.68 150.16 153.33 
M 149.5 156.62 150.16 153.33 
M 149.42 153.24 150.22 156.68 
M 150.94 156.74 150.89 153.42 
M 150.22 156.68 150.89 153.42 
M 150.16 153.33 150.94 156.74 
M 151.66 156.81 151.61 153.5 
M 150.94 156.74 151.61 153.5 
M 150.89 153.42 151.66 156.81 
M 152.37 156.88 152.34 153.58 
M 151.66 156.81 152.34 153.58 
M 151.61 153.5 152.37 156.88 
M 153.07 156.95 153.06 153.66 
M 152.37 156.88 153.06 153.66 
M 152.34 153.58 153.07 156.95 
M 153.77 157.03 153.78 153.73 
M 153.07 156.95 153.78 153.73 
M 153.06 153.66 153.77 157.03 
M 154.48 157.1 154.51 153.81 
M 153.77 157.03 154.51 153.81 
M 153.78 153.73 154.48 157.1 
M 155.21 157.18 155.23 153.89 
M 154.48 157.1 155.23 153.89 
M 154.51 153.81 155.21 157.18 
M 155.94 157.25 155.94 153.95 
M 155.21 157.18 155.94 153.95 
M 155.23 153.89 155.94 157.25 
M 156.68 157.32 156.65 154.01 
M 155.94 157.25 156.65 154.01 
M 155.94 153.95 156.68 157.32 
M 157.42 157.4 157.37 154.07 
M 156.68 157.32 157.37 154.07 
M 156.65 154.01 157.42 157.4 
M 158.14 157.48 158.09 154.15 
M 157.42 157.4 158.09 154.15 
M 157.37 154.07 158.14 157.48 
M 158.86 157.56 158.82 154.24 
M 158.14 157.48 158.82 154.24 
M 158.09 154.15 158.86 157.56 
M 159.59 157.65 159.54 154.33 
M 158.86 157.56 159.54 154.33 
M 158.82 154.24 159.59 157.65 
M 160.31 157.73 160.27 154.41 
M 159.59 157.65 160.27 154.41 
M 159.54 154.33 160.31 157.73 
M 161.03 157.81 161 154.48 
M 160.31 157.73 161 154.48 
M 160.27 154.41 161.03 157.81 
M 161.76 157.88 161.74 154.54 
M 161.03 157.81 161.74 154.54 
M 161 154.48 161.76 157.88 
M 162.49 157.94 162.49 154.59 
M 161.76 157.88 162.49 154.59 
M 161.74 154.54 162.49 157.94 
M 163.23 158.01 163.23 154.64 
M 162.49 157.94 163.23 154.64 
M 162.49 154.59 163.23 158.01 
M 163.97 158.07 163.97 154.7 
M 163.23 158.01 163.97 154.7 
M 163.23 154.64 163.97 158.07 
M 164.71 158.14 164.7 154.78 
M 163.97 158.07 164.7 154.78 
M 163.97 154.7 164.71 158.14 
M 165.44 158.21 165.43 154.86 
M 164.71 158.14 165.43 154.86 
M 164.7 154.78 165.44 158.21 
M 166.17 158.27 166.15 154.94 
M 165.44 158.21 166.15 154.94 
M 165.43 154.86 166.17 158.27 
M 166.9 158.34 166.88 155.02 
M 166.17 158.27 166.88 155.02 
M 166.15 154.94 166.9 158.34 
M 167.62 158.42 167.6 155.08 
M 166.9 158.34 167.6 155.08 
M 166.88 155.02 167.62 158.42 
M 168.33 158.49 168.31 155.15 
M 167.62 158.42 168.31 155.15 
M 167.6 155.08 168.33 158.49 
M 169.04 158.56 169.02 155.22 
M 168.33 158.49 169.02 155.22 
M 168.31 155.15 169.04 158.56 
M 169.75 158.63 169.73 155.28 
M 169.04 158.56 169.73 155.28 
M 169.02 155.22 169.75 158.63 
M 170.46 158.71 170.44 155.34 
M 169.75 158.63 170.44 155.34 
M 169.73 155.28 170.46 158.71 
M 171.17 158.77 171.15 155.39 
M 170.46 158.71 171.15 155.39 
M 170.44 155.34 171.17 158.77 
M 286.78 164.87 294.94 165.6 304.81 166.04 316.36 165.92 327.61 164.99 328.13 166.54 326.18 169.1 323.69 171.25 321.86 172.24 
M 304.08 173.89 300.82 173.79 297.56 173.47 294.42 172.59 292.99 171.88 291.61 171.01 289.1 168.86 286.98 166.29 286.78 164.87 
M 286.85 167.28 298.22 168.14 303.17 168.37 309.78 168.4 317.91 168.27 328.51 167.22 
M 321.67 90.19 343.03 72.43 377.24 45.09 
M 322.37 91.11 344.15 73.81 350.74 68.9 377.96 45.99 
M 321.67 90.19 322.37 91.11 
M 377.24 45.09 377.96 45.99 
M 254.85 40.71 293.84 40.84 307.71 41.51 
M 254.83 41.68 280.77 42.44 293.83 42.23 307.68 42.52 
M 254.85 40.71 254.83 41.68 
M 307.71 41.51 307.68 42.52 
M 248.48 81.14 269.57 81.41 290.66 81.45 298.82 81.61 313.97 82.32 
M 248.46 82.12 280.91 83.06 298.79 82.9 313.95 83.3 
M 248.48 81.14 248.46 82.12 
M 313.97 82.32 313.95 83.3 
M 240.01 121.47 278.98 121.46 320.91 122.98 
M 240.02 122.47 275.73 122.96 320.88 123.93 
M 240.01 121.47 240.02 122.47 
M 320.91 122.98 320.88 123.93 
M 175.5 65.18 209.83 65.5 227.62 66.13 238.87 66.25 
M 175.47 66.18 208.13 67.13 229.21 67.34 238.88 67.22 
M 175.5 65.18 175.47 66.18 
M 238.87 66.25 238.88 67.22 
M 167.19 133.86 178.75 134.45 199.86 134.86 230.95 135.31 245.77 135.36 
M 167.14 134.84 178.7 135.6 206.29 136.58 230.86 136.54 245.77 136.34 
M 167.19 133.86 167.14 134.84 
M 245.77 135.36 245.77 136.34 
M 89.22 159.64 95.72 159.72 103.08 159.56 
M 107.53 159.59 120.41 159.57 
M 89.17 160.52 97.29 160.9 105.88 160.99 
M 110.33 160.88 120.46 160.44 
M 89.22 159.64 89.17 160.52 
M 120.41 159.57 120.46 160.44 
M 90.6 160.6 89.7 168.69 89.2 175.14 89.24 183.3 89.72 191.6 90.32 198.09 91.53 199.17 94.38 200.68 97.31 202.02 100.34 203.01 105.15 203.87 108.34 203.84 109.94 203.6 113.2 202.87 114.74 202.37 119.32 200.54 120.67 199.65 120.84 191.51 120.6 175.21 119.89 167.8 
M 119.58 165.14 119.01 160.52 
M 95.33 160.84 94.74 170.61 94.36 181.95 94.39 185.18 95.22 198.63 
M 100.05 160.95 100.06 169.28 99.74 174.1 99.66 179 100.29 196.17 
M 100.26 197.39 100.27 198.62 
M 104.77 161 105.06 172.6 104.93 177.48 105.4 192.06 105.3 199.82 
M 105.41 203.39 105.42 203.9 
M 109.59 162.85 110.51 179.27 110.2 189.03 110.42 202.25 
M 114.72 166.8 115.68 178.25 115.46 186.29 115.51 198.55 
M 115.54 201.23 115.56 202.07 
M 114.31 196.2 114.36 201.65 
M 116.12 188.37 116.13 201 
M 117.95 182.09 118.05 190.25 117.95 200.28 
M 119.59 173.83 119.91 190.11 119.78 199.53 
M 325.04 89.05 337.46 109.89 345.29 122.42 351.79 131.89 360.96 144.24 
M 380.59 131.33 382.59 120.04 383.68 111.89 384.39 103.73 384.48 92.35 383.9 85.95 382.76 77.95 379.53 61.74 376.26 47.43 
M 373.9 49.34 374.89 50.63 377.44 52.24 
M 371.4 51.48 373.26 54.1 374.39 55.25 378.67 57.84 
M 368.93 53.56 371.53 57.65 372.51 58.94 379.92 63.58 
M 366.44 55.68 370.58 62.72 376.01 66.33 381.03 69.34 
M 363.86 57.88 368.67 66.39 374.01 70.17 378.18 72.77 382.17 75.01 
M 361.17 60.11 362.63 63.04 365.82 68.68 366.75 70.07 369.34 72.07 374.7 75.72 383.27 80.79 
M 358.58 62.3 362.18 69.59 362.95 71 364.77 73.68 365.97 74.8 374.14 80.43 383.96 86.4 
M 356.01 64.42 359.59 71.76 362.93 77.34 364.01 78.59 374.86 86.08 384.47 91.95 
M 353.47 66.63 356.29 72.46 360.37 79.5 362.17 82.25 371.39 89.05 376.81 92.7 384.54 97.55 
M 350.94 68.73 352.31 71.62 355.64 77.21 358.65 83.04 360.6 85.7 361.72 86.9 370.76 93.86 384.42 103.1 
M 348.28 70.72 349.81 73.56 354.18 80.63 357.22 86.4 359.91 90.44 362.37 92.58 367.45 96.62 383.98 108.72 
M 345.63 72.67 351.76 82.53 357.53 92.3 359.4 95.01 364.23 99.39 375.7 108.46 383.45 114.27 
M 343.1 74.69 352.55 90.09 356.09 95.57 357.69 98.38 358.69 99.66 372.15 111.49 382.6 119.98 
M 340.58 76.7 343.02 80.99 350.84 93.41 354.55 98.82 357.04 102.95 358.13 104.19 367.41 113.32 373.44 118.75 381.58 125.69 
M 338.01 78.76 343.82 88.53 349.12 96.79 352.89 102.04 356.39 107.55 358.5 110.06 362.96 114.84 369.8 121.72 375.87 127.3 380.59 131.32 
M 335.48 80.76 342.83 93.41 355.64 112.32 359.81 117.42 363.06 121.02 366.38 124.54 374.37 132.48 
M 332.88 82.77 338.56 92.62 353.75 115.95 358.7 122.34 368.56 133.35 
M 330.25 84.82 336 94.68 351.7 119.53 355.63 124.83 362.84 133.56 
M 327.61 86.89 332.55 95.39 348.03 120.29 351.74 125.79 358.68 134.91 
M 368.16 130.18 367.23 133.39 
M 370.63 125.13 368.65 133.35 
M 373.07 120.31 370.05 133.25 
M 375.83 113.95 371.45 133.02 
M 377.91 109.01 376.73 115.44 372.85 132.76 
M 379.53 105.13 378.03 114.81 374.25 132.5 
M 381.07 100.15 380.41 106.59 379.46 113.03 378.3 119.52 375.66 132.25 
M 382.48 94.62 381.77 104.3 380.71 112.42 379.65 118.91 377.07 131.99 
M 382.85 85.58 383.36 93.62 383.13 100.14 382.78 104.96 381.34 116.27 378.5 131.73 
M 381.64 73.41 383.08 81.51 383.9 89.49 384.18 94.32 383.97 102.45 383.6 107.37 382.69 115.39 379.9 131.47 
M 256.58 41.76 257.32 43.19 258.8 43.92 260.42 44.11 261.96 43.65 263.37 41.94 
M 263.57 41.94 263.97 43.52 264.91 44.86 266.32 45.65 267.96 45.6 269.34 44.78 270.19 43.42 270.43 42.14 
M 270.62 42.15 271.13 43.7 272.24 44.89 273.78 45.4 275.41 45.22 276.77 44.33 277.56 42.38 
M 277.85 42.38 278.88 43.62 280.4 44.15 282.06 44.17 283.59 43.62 284.59 42.43 
M 284.86 42.43 285.3 43.97 286.33 45.2 287.81 45.83 289.43 45.59 290.85 44.64 291.66 43.15 291.78 42.26 
M 291.99 42.25 292.57 43.79 293.75 44.9 295.31 45.27 296.93 45.03 298.22 44.02 298.87 42.32 
M 299.06 42.33 299.64 43.91 300.86 44.99 302.46 45.34 304.09 45.06 305.36 44.04 305.94 42.49 
M 249.94 82.15 244.67 99.2 241.72 113.6 240.75 120.04 242.24 120.81 246.58 121.49 
M 255.97 122.74 265.58 123.61 272 123.97 284.96 124.03 295.76 123.4 
M 305.12 122.41 319.78 120.27 320.34 118.73 318.98 109.22 317.98 104.45 315.66 94.78 312.44 83.29 
M 254.39 82.29 253.65 85.53 250.85 94.73 249.68 99.49 247.24 114.02 246.37 121.45 
M 258.88 82.48 257.84 87.27 256.04 93.41 254.7 99.7 253.79 107.79 252.84 114.3 252.17 121.53 
M 263.28 82.58 262.03 89.01 260.92 93.74 259.87 99.98 259.57 106.42 
M 259.06 110.03 258.83 112.51 
M 258.69 113.73 257.95 121.49 
M 257.86 122.77 257.84 122.96 
M 267.69 82.75 265.78 95.54 264.86 105.25 264.27 114.97 263.6 121.41 
M 263.52 122.78 263.48 123.45 
M 272.07 82.88 271.44 87.72 271.1 93.5 
M 270.52 102.05 270.15 105.74 
M 270.2 110.57 270.03 113.78 269.25 121.42 
M 269.15 122.87 269.09 123.82 
M 276.54 82.98 276.19 86.18 276 93.71 
M 275.62 111.95 274.91 121.4 
M 274.82 122.94 274.76 124.01 
M 281 83.07 280.68 87.88 280.92 96.19 
M 280.85 104.83 280.88 108.49 
M 280.92 109.74 281.09 112.95 280.55 121.51 
M 280.46 123.1 280.41 124.08 
M 285.44 82.99 285.38 89.51 285.82 94.99 
M 286.08 99.98 286.49 104.99 286.6 109.78 286.11 121.65 
M 286.09 123.2 286.09 124 
M 289.93 82.92 290.14 89.43 291.5 99.3 291.78 104.3 292.04 110.77 291.85 121.84 
M 291.83 123.32 291.83 123.73 
M 294.35 82.88 294.82 87.68 295.95 94.33 296.39 99.33 297.07 104.25 297.29 107.47 297.16 112.35 297.51 122.08 
M 298.87 82.9 301.27 97.57 
M 301.73 101.34 302.3 104.63 302.55 107.85 302.67 114.23 303.14 119.12 303.22 122.36 
M 303.44 83 307.16 102.51 
M 308.03 110.98 308.99 121.92 
M 307.96 83.15 311.75 99.29 312.59 103.77 
M 314.07 114.59 314.76 121.07 
M 289.75 104.93 302.76 104.36 304.06 105.29 304.37 110.14 302.91 110.83 301.27 110.99 294.73 111.3 291.56 111.68 290.03 111.22 289.75 104.93 
M 290.62 105.29 289.84 104.96 
M 293.04 105.22 293.33 104.85 
M 295.49 105.13 296.79 104.71 
M 297.95 105.02 301.79 104.48 
M 300.38 104.92 303.61 104.31 
M 302.84 104.76 303.97 105.76 
M 303.32 107.07 304.16 108.17 
M 303.51 109.49 304.28 109.85 
M 301.91 110.56 304.12 110.66 
M 299.46 110.73 298.9 111.08 
M 297.01 110.78 295.28 111.21 
M 294.55 110.95 292.04 111.59 
M 292.19 111.23 290.25 110.95 
M 290.85 109.86 290.07 109.27 
M 290.8 107.45 290.05 107.53 
M 301.67 120.29 301.68 122.04 
M 303.23 117.26 303.45 121.85 
M 304.62 114.53 305.03 117.76 305.22 121.6 
M 306.16 112.07 306.87 118.55 307 121.37 
M 307.83 109.13 307.91 112.36 308.51 117.16 308.79 121.14 
M 309.3 106.73 310.56 120.9 
M 310.68 104.62 311.16 107.86 312.33 120.65 
M 311.92 102.54 312.96 109 314.17 120.39 
M 313.03 99.97 314.77 109.64 315.97 120.12 
M 313.74 96.45 316.45 109.32 317.76 119.84 
M 314.05 91.8 314.95 95.01 317.56 106.29 318.17 109.47 319.53 119.55 
M 248.88 85.6 270.02 86.2 283.08 86.3 294.44 86.06 313.38 86.43 
M 252.19 85.73 252.19 87.35 
M 258.59 85.95 258.58 87.56 
M 264.88 86.08 264.87 87.69 
M 271.13 86.2 271.12 87.81 
M 277.57 86.22 277.56 87.82 
M 284.1 86.3 284.1 87.92 
M 290.52 86.22 290.54 87.85 
M 296.99 86.12 297.02 87.77 
M 303.54 86.31 303.55 87.96 
M 310.12 86.38 310.13 88.03 
M 241.61 122.49 239.54 135.38 
M 239.42 136.42 238.96 141.24 238.72 147.73 238.94 160.85 240.52 161.32 258.43 162.59 276.39 163.14 282.98 163 297.66 162.28 307.53 161.66 317.41 160.8 318.93 160.21 320.03 145.48 319.96 137.43 319.28 123.91 
M 247.12 122.61 245.23 134.85 
M 244.57 142 244.35 146.86 244.46 155.5 
M 244.48 156.74 244.6 161.62 
M 252.71 122.72 251.19 132.36 250.72 137.32 
M 250.26 142.11 250.02 145.37 250.11 158.49 250.27 161.99 
M 258.27 123 256.69 132.64 256.5 134.24 256.42 137.44 255.7 142.26 255.63 144.63 
M 255.74 147.11 255.96 153.68 255.88 158.59 256 162.41 
M 263.75 123.46 263.4 126.69 262.33 133.11 262.1 137.96 261.43 144.53 261.25 151.11 261.73 162.75 
M 269.24 123.82 269 127.08 268.11 133.55 267.67 140.03 267 144.99 266.86 148.31 267 149.97 266.98 154.86 267.41 162.96 
M 274.79 124 274.56 127.25 273.64 135.37 273.53 138.68 272.7 146.97 272.76 155.13 273.09 163.09 
M 280.29 124.08 280.14 127.98 
M 279.69 132.91 279.04 137.88 279.08 142.81 278.36 146.01 278.27 147.61 278.54 150.79 278.5 154.1 278.72 157.42 278.81 163.12 
M 285.81 124 285.51 131.9 
M 285.23 135.56 285.23 142.08 284.55 146.87 284.53 162.93 
M 291.39 123.74 291.36 128.41 
M 291.39 136.89 291.36 141.69 290.22 148.08 290.11 151.34 290.25 156.3 
M 290.2 158.77 290.16 162.63 
M 296.97 123.44 296.98 128.4 297.64 137 
M 296.4 146.45 296.03 148.04 295.6 151.25 295.64 154.57 295.91 157.91 295.9 162.36 
M 302.53 123.59 302.59 126.81 303.5 138.32 
M 303.33 141.92 302.03 146.54 301.45 153.01 301.51 157.59 
M 308.07 123.68 308.33 130.14 309.16 139.84 309.06 141.45 307.91 147.94 
M 307.42 161.34 307.41 161.68 
M 313.66 123.8 314.49 139.96 314.44 143.21 314.1 146.94 
M 313.36 156.75 313.21 160.53 
M 255.64 141.23 270.26 141.67 270.84 143.28 270.64 146.64 270.72 149.9 270.38 151.5 257.12 151.14 255.68 150.37 255.46 143.79 255.64 141.23 
M 256.53 141.83 255.73 141.29 
M 258.97 141.92 257.72 141.35 
M 261.45 142.03 261.56 141.52 
M 263.9 142.11 265.23 141.61 
M 266.31 142.17 268.88 141.7 
M 268.75 142.21 270.78 141.74 
M 269.92 143.83 270.73 144.09 
M 269.73 146.34 270.54 146.52 
M 269.82 148.78 270.63 149 
M 269.16 150.86 270.6 151.45 
M 266.67 150.82 268.62 151.38 
M 264.15 150.74 264.86 151.3 
M 261.63 150.66 261.17 151.17 
M 259.14 150.59 257.7 151.09 
M 256.72 150.54 255.82 151.07 
M 256.55 148.11 255.77 148.62 
M 256.41 145.64 255.6 146.05 
M 256.39 143.19 255.54 143.55 
M 285.02 140.01 296.35 140.37 301.32 140.38 302.67 141.33 302.36 142.89 301.35 145.94 301.12 147.56 300.46 149.03 285.87 149.49 284.36 149.03 284.42 145.84 285.01 142.66 285.02 140.01 
M 286.03 140.56 285.12 140.06 
M 288.46 140.61 287.49 140.12 
M 290.87 140.67 291.67 140.22 
M 293.26 140.81 296 140.42 
M 295.7 140.9 300.19 140.45 
M 298.19 140.93 302.31 140.4 
M 300.68 140.89 302.3 142.37 
M 301.42 142.43 302.07 143.44 
M 300.67 144.72 301.34 145.5 
M 300.17 147.1 300.99 147.77 
M 298.75 148.52 300.8 148.97 
M 296.26 148.56 296.61 149.03 
M 293.8 148.65 292.59 149.15 
M 291.35 148.73 290.52 149.26 
M 288.94 148.89 286.72 149.43 
M 286.61 148.91 284.61 149.45 
M 285.39 147.42 284.4 147.08 
M 285.66 145.06 284.8 144.83 
M 286.04 142.67 285.13 142.51 
M 299.69 160.19 299.72 161.33 
M 301.36 157.14 301.55 161.24 
M 303.16 154.34 303.35 161.15 
M 305.19 151.8 305.05 153.47 305.18 161.04 
M 307.38 148.99 306.96 153.95 307.03 160.92 
M 309.6 146.59 308.95 153.09 308.89 160.76 
M 311.83 144.57 310.84 152.62 310.73 160.59 
M 313.85 142.74 312.76 152.38 312.55 160.43 
M 315.61 140.21 315.52 145.05 314.67 153.17 314.43 160.29 
M 317.23 136.84 317.33 144.92 316.61 153.04 316.25 160.13 
M 318.79 132.34 319.16 143.71 318.05 159.96 
M 240.97 126 271.81 126.57 279.89 126.51 292.93 126.94 319.47 127.05 
M 244.9 126.06 244.87 127.73 
M 252.68 126.2 252.69 127.85 
M 260.61 126.34 260.59 127.97 
M 268.53 126.49 268.51 128.11 
M 276.27 126.51 276.26 128.15 
M 284.08 126.64 284.08 128.27 
M 291.93 126.91 291.93 128.54 
M 299.81 127.03 299.8 128.65 
M 307.58 127.03 307.59 128.66 
M 315.48 127.03 315.48 128.67 
M 177.02 66.24 175.38 75.74 173.94 85.32 173.03 93.52 171.95 109.97 171.29 132.67 172.8 133.35 176.59 134.35 
M 182.52 135.74 188.85 137.02 193.65 137.79 200.28 138.45 206.7 138.67 209.87 138.59 214.78 138.19 221.39 137.31 225.33 136.52 
M 230.91 135.31 239.85 133.03 
M 243.56 121.47 243.53 121.02 
M 242.7 108.78 241.06 89.34 239.43 78.19 237.33 67.23 
M 181.64 66.43 180.21 75.94 
M 179.77 79.51 178.96 85.92 178.22 94.19 177.36 109.05 177.14 117.53 
M 177.05 121.22 176.97 134.37 
M 186.33 66.47 184.55 81 183.7 94.08 183.09 100.81 182.74 108.9 182.46 134.5 
M 191.02 66.6 190.55 73.05 189.75 79.6 189.32 85.92 
M 189.18 89.7 189.08 92.98 188.44 101.27 188.29 105.78 
M 188.29 107 188.28 111.82 
M 188.37 114.25 188.4 117.53 188.12 125.11 
M 187.99 132.4 187.97 134.59 
M 187.97 135.95 187.96 136.86 
M 195.66 66.72 195.38 73.21 194.27 87.96 193.91 97.98 194.05 111.15 193.94 121.62 
M 193.66 127.55 193.54 134.74 
M 193.52 136.16 193.49 137.78 
M 200.4 66.84 200.21 79.77 199.27 91.46 199.29 96.48 199.76 106.35 199.82 114.44 199.17 133.84 
M 205 66.99 205.03 78.35 204.5 88.25 204.45 94.96 205.3 117.82 204.8 129.02 204.75 134.94 
M 204.76 136.55 204.71 138.65 
M 209.58 67.09 209.83 73.6 209.77 83.75 
M 209.85 93.72 209.98 100.41 209.78 108.61 210.34 121.4 210.18 135.03 
M 210.14 136.62 210.13 138.59 
M 214.16 67.13 214.63 75.25 214.76 81.77 215.21 87.58 
M 215.25 88.79 215.3 103.67 215.08 108.5 215.08 113.32 215.14 116.52 215.52 121.39 215.73 135.09 
M 215.71 136.58 215.73 138.08 
M 218.77 67.17 219.45 78.61 220.73 94.73 220.61 111.16 221.17 124.12 221.4 135.18 
M 221.41 136.6 221.43 137.31 
M 223.53 69.51 224.52 80.8 225.64 88.81 226.15 95.27 226.3 100.25 225.95 106.84 226.24 112.12 
M 226.39 114.55 227.04 135.2 
M 228.01 67.32 231.16 93.07 231.54 107.71 232.31 124.1 232.6 134.86 
M 232.68 67.3 235 81.83 235.85 89.82 236.76 102.34 
M 236.99 105.98 237.86 120.76 238.07 127 
M 226.49 132.61 226.56 134.85 
M 228.06 126.8 228.36 134.47 
M 229.64 121.56 230.18 134.1 
M 231.36 116.77 231.97 133.66 
M 232.89 110.54 233.52 123.71 233.75 133.19 
M 234.47 105.99 234.78 114.12 235.32 122.39 235.54 132.75 
M 236.02 102.34 237.15 122.02 237.35 132.31 
M 237.44 97.49 238.89 120.32 239.18 131.9 
M 238.66 91.49 240.73 120.18 
M 240.75 120.58 240.81 121.47 
M 240.86 122.48 240.91 126.28 
M 239.41 83.03 240.52 92.53 242 112.15 
M 242.61 120.87 242.65 121.47 
M 175.98 72.35 205.38 73.33 220.02 73.42 238.51 73.24 
M 179.12 72.52 179.06 74.11 
M 185.36 72.71 185.32 74.34 
M 191.76 72.89 191.76 74.51 
M 198.1 73.12 198.07 74.74 
M 204.37 73.32 204.34 74.93 
M 210.55 73.38 210.56 74.99 
M 216.6 73.39 216.62 75 
M 222.69 73.38 222.72 75.02 
M 228.98 73.34 229.02 74.96 
M 235.38 73.28 235.44 74.93 
M 168.73 134.93 167.9 141.44 167.72 149.75 167.14 158.69 
M 169.43 168.66 172.62 169.17 183.98 170.5 190.53 171 201.86 171.49 208.45 171.54 216.67 171.23 227.93 170.29 236.07 169.81 242.51 168.97 243.6 167.76 243.84 161.56 
M 174.54 135.33 173.91 141.82 173.83 146.79 172.96 159.7 172.87 164.65 173.01 169.22 
M 180.32 135.66 179.76 142.14 179.35 156.86 178.87 161.73 178.88 169.92 
M 185.91 136.45 185.51 141.33 185.13 149.62 185.11 152.85 185.3 156 185.04 159.23 184.79 170.58 
M 191.62 137.48 191.03 145.72 190.85 152.31 191.26 163.53 190.9 166.77 190.72 171.02 
M 197.14 146.59 196.58 154.81 196.61 156.4 197.36 161.12 197.38 162.73 196.77 167.52 196.59 171.27 
M 203.02 143.04 202.42 154.52 202.68 157.63 203.23 160.8 203.23 162.43 202.42 171.5 
M 209.01 138.63 208.7 141.89 208.51 150.07 208.71 155.34 
M 208.81 165.07 208.69 168.27 208.36 171.55 
M 214.91 138.17 214.45 149.54 214.89 156.1 214.89 159.44 214.48 164.35 214.48 167.55 214.26 171.34 
M 220.9 137.39 220.47 148.77 220.79 153.62 220.57 158.52 220.26 161.71 220.26 165.15 
M 220.29 167.59 220.14 170.97 
M 226.78 136.51 226.83 139.82 226.46 147.99 226.44 151.22 226.65 154.4 
M 225.97 162.74 226.11 167.64 225.94 170.48 
M 232.54 136.47 232.37 147.92 232.55 154.44 
M 231.91 161.77 231.97 166.65 231.8 170.03 
M 238.32 136.4 238.37 138.67 
M 238.35 142.34 238.36 154.58 
M 238.33 155.81 238.28 157.05 
M 237.86 163.17 237.7 169.63 
M 225.02 169.5 224.98 169.88 
M 226.87 166.82 226.75 169.72 
M 228.45 164.16 228.64 167.41 228.51 169.57 
M 230.31 161.79 230.24 163.41 230.42 166.66 230.29 169.43 
M 232.48 159.48 232.03 162.71 232.2 165.98 232.05 169.32 
M 234.44 157.09 233.92 161.94 233.96 166.87 233.81 169.23 
M 236.25 154.98 235.69 163.11 235.64 169.17 
M 238.03 153.19 237.97 156.47 237.51 163 237.41 169.01 
M 239.38 161.22 239.13 168.76 
M 241.19 161.37 240.9 168.49 
M 242.95 161.49 242.7 168.27 
M 168.33 137.76 201.65 138.51 
M 206.42 138.67 239.17 138.99 
M 172.19 137.9 172.22 139.54 
M 179.72 138.08 179.72 139.69 
M 187.14 138.23 187.13 139.85 
M 194.65 138.41 194.66 140.05 
M 202.36 138.54 202.37 140.18 
M 209.87 138.76 209.88 140.4 
M 217.54 138.82 217.56 140.47 
M 225.36 138.93 225.37 140.56 
M 232.83 138.91 232.84 140.57 
M 340.23 170.27 340.51 154.24 340.02 131.3 340.51 114.75 
M 343.11 72.36 344.23 61.45 
M 346.02 169.72 345.69 152.02 344.59 132.35 344.4 121.04 
M 346.02 70.11 346.56 61.56 
M 344.23 61.45 346.56 61.56 
M 275.56 174.87 276.28 163.14 
M 279.29 81.42 279.89 58.6 279.87 44.03 
M 279.93 40.85 279.97 30 
M 281.45 174.83 281.53 168.28 281.77 163.02 
M 282.8 81.44 282.89 76.59 282.74 63.59 282.92 58.62 282.61 52.17 282.56 44.06 
M 282.53 40.81 282.33 30 
M 279.97 30 282.33 30 
M 202.21 179.28 202.57 171.49 
M 206.03 65.44 206.25 56.23 
M 207.91 179.26 208.12 171.54 
M 208.57 65.49 208.56 56.24 
M 206.25 56.23 208.56 56.24 
M 344.19 61.8 323.27 66.18 313.67 68.02 292.83 71.45 282.87 73.3 
M 279.99 31.74 273.84 40.81 
M 271.41 44.19 265.99 52.14 251.75 72.14 240.77 87.2 
M 206.23 57.26 196.62 65.33 
M 174.17 84.02 163.05 93.64 153.06 101.98 147.87 106.04 139.97 111.87 128.5 120.83 117 130.1 97.38 144.65 89.3 150.92 
M 438.5 120.76 437.96 121.83 
M 439.35 120.73 437.92 123.43 
M 440.17 120.77 438.4 124.09 
M 440.95 120.88 439.26 124.05 
M 441.68 121.07 440.09 124.09 
M 442.4 121.27 440.86 124.2 
M 443.12 121.47 441.6 124.38 
M 443.85 121.66 442.31 124.57 
M 444.68 121.71 443.02 124.77 
M 445.57 121.66 443.76 124.96 
M 446.55 121.39 444.55 125.02 
M 447.73 120.72 445.41 124.98 
M 449.18 119.55 446.38 124.74 
M 450.57 118.46 447.59 124.08 
M 451.6 118.04 449.04 122.94 
M 452.46 117.99 450.48 121.85 
M 453.23 118.09 451.57 121.4 
M 453.91 118.36 452.44 121.34 
M 454.52 118.76 453.21 121.44 
M 455.1 119.22 453.87 121.73 
M 455.62 119.84 454.46 122.13 
M 456.12 120.45 455.03 122.58 
M 456.57 121.14 455.53 123.16 
M 457.03 121.83 456.01 123.74 
M 457.54 122.41 456.45 124.42 
M 458.06 122.99 456.9 125.13 
M 458.63 123.44 457.4 125.73 
M 459.27 123.79 457.92 126.31 
M 460.02 123.93 458.51 126.76 
M 460.97 123.7 459.14 127.14 
M 462.06 123.16 459.88 127.29 
M 462.01 124.81 460.8 127.1 
M 438.44 127.48 437.9 128.55 
M 439.28 127.42 437.9 130.16 
M 440.08 127.43 438.4 130.83 
M 440.85 127.54 439.25 130.8 
M 441.59 127.74 440.07 130.85 
M 442.31 127.94 440.85 130.95 
M 443.04 128.14 441.57 131.12 
M 443.79 128.33 442.3 131.32 
M 444.6 128.38 443.04 131.54 
M 445.47 128.32 443.78 131.74 
M 446.45 128.04 444.57 131.81 
M 447.65 127.37 445.42 131.77 
M 449.11 126.21 446.38 131.51 
M 450.48 125.12 447.56 130.84 
M 451.52 124.71 449.01 129.66 
M 452.37 124.66 450.4 128.54 
M 453.14 124.76 451.43 128.08 
M 453.81 125.03 452.28 128.02 
M 454.41 125.43 453.05 128.1 
M 454.97 125.89 453.73 128.38 
M 455.47 126.5 454.34 128.76 
M 455.97 127.13 454.93 129.23 
M 456.44 127.83 455.46 129.84 
M 456.91 128.53 455.98 130.47 
M 457.42 129.11 456.47 131.18 
M 457.95 129.69 456.96 131.9 
M 458.55 130.16 457.5 132.52 
M 459.21 130.54 458.06 133.12 
M 459.97 130.69 458.66 133.59 
M 460.89 130.48 459.28 133.96 
M 461.96 129.95 460.01 134.09 
M 461.97 131.59 460.89 133.87 
M 437.9 117.47 439.57 117.41 441.23 117.62 444.46 118.4 446.11 118.28 447.55 117.47 450.11 115.33 451.6 114.64 453.23 114.68 454.67 115.48 455.8 116.68 457.81 119.28 459.03 120.33 460.64 120.42 461.96 119.46 462.08 121.11 461.99 132.6 460.97 133.85 459.39 133.98 458.02 133.07 454.83 129.15 453.46 128.26 451.85 128.02 450.35 128.58 447.82 130.66 446.39 131.51 444.78 131.82 439.92 130.82 438.27 130.84 437.9 129.26 437.9 117.47 
M 238.27 40.94 239.32 39.71 240.9 39.9 242.42 39.36 243.91 40.06 244.54 40.69 
M 230.78 291.39 228.89 297.7 
M 234.98 291.39 233.09 297.7 
M 229.88 294.39 234.08 294.39 
M 237.38 291.39 235.49 297.7 
M 237.38 291.39 237.89 297.7 
M 242.18 291.39 237.89 297.7 
M 242.18 291.39 240.29 297.7 
M 248.21 292.3 247.79 291.7 246.98 291.39 245.78 291.39 244.79 291.7 244.01 292.3 243.83 292.89 244.16 293.8 246.8 295 247.13 295.89 246.86 296.8 246.08 297.39 245.09 297.7 243.89 297.7 243.08 297.39 242.66 296.8 
M 257.21 292.3 256.78 291.7 255.98 291.39 254.78 291.39 253.79 291.7 253.01 292.3 252.83 292.89 253.16 293.8 255.8 295 256.13 295.89 255.86 296.8 255.08 297.39 254.09 297.7 252.89 297.7 252.08 297.39 251.66 296.8 
M 258.11 295.3 261.71 295.3 261.89 294.7 261.77 294.1 261.05 293.5 260.14 293.5 259.46 293.8 258.68 294.39 258.11 295.3 257.93 295.89 257.96 296.8 258.38 297.39 258.89 297.7 259.78 297.7 260.48 297.39 261.26 296.8 
M 264.35 293.5 263.09 297.7 
M 263.81 295.3 264.38 294.39 265.15 293.8 265.85 293.5 266.75 293.5 
M 267.4 295.3 271.01 295.3 271.19 294.7 271.07 294.1 270.35 293.5 269.45 293.5 268.76 293.8 267.98 294.39 267.4 295.3 267.23 295.89 267.26 296.8 267.68 297.39 268.19 297.7 269.08 297.7 269.77 297.39 270.56 296.8 
M 273.64 293.5 272.39 297.7 
M 273.29 294.7 274.45 293.8 275.14 293.5 276.05 293.5 276.56 293.8 276.58 294.7 275.69 297.7 
M 279.68 291.39 279.89 291.7 280.27 291.39 280.07 291.1 279.68 291.39 
M 279.35 293.5 278.08 297.7 
M 282.68 291.39 281.14 296.5 281.18 297.39 281.69 297.7 282.29 297.7 
M 281.14 293.5 283.25 293.5 
M 284.75 293.5 285.29 297.7 
M 288.35 293.5 284.33 298.89 283.55 299.5 282.56 299.8 
M 289.37 297.1 288.98 297.39 289.19 297.7 289.58 297.39 289.37 297.1 
"/></svg>
