<svg xmlns="http://www.w3.org/2000/svg" width="520" height="320"><rect x="0" y="0" width="520" height="320" fill="floralwhite"/><rect x="10" y="10" width="500" height="300" stroke="black" stroke-width="1" fill="none"/><path stroke="black" stroke-width="1" fill="none" stroke-linecap="round" stroke-linejoin="round" d="
M 155.62 235.81 156.92 234.76 158.52 234.34 161.86 234.08 168.49 234.36 181.53 235.45 188.86 235.9 
M 159.01 236.22 157.57 237.03 156.75 235.59 
M 160.15 235.99 158.68 236.81 157.87 235.38 
M 163.15 235.77 161.69 236.62 160.86 235.19 
M 167.16 235.89 165.72 236.71 164.88 235.31 
M 172.14 236.22 170.67 237 169.92 235.62 
M 178.33 236.76 176.88 237.52 176.12 236.12 
M 90.79 238.95 95.69 239.31 98.92 239.09 103.83 238.27 110.43 238.74 123.73 238.16 131.82 238.43 136.8 237.82 145.18 236.29 153.68 236.26 155.63 236.06 
M 181.5 237.61 186.35 238.84 189.75 239.09 196.61 239.28 204.91 239.01 208.24 238.64 213.16 237.59 214.86 237.43 216.54 237.51 223.26 238.34 228.35 238.48 233.28 238.94 236.61 238.92 243.19 239.37 244.85 239.25 249.73 238.47 254.57 237.05 257.87 236.65 264.52 237.22 269.36 237.93 272.66 237.93 279.27 237.38 285.98 237.38 294.46 237.66 299.54 237.28 304.51 236.61 309.36 235.72 317.47 235.18 325.76 235.49 337.22 237.23 340.62 237.28 344.03 236.9 352.11 234.71 353.75 234.44 357.1 234.31 363.82 234.9 367.1 235.56 370.37 235.79 375.36 235.97 380.42 235.63 382.08 235.73 385.42 236.29 387.07 236.33 390.47 236.06 395.23 234.85 396.91 234.85 405.33 235.75 412.08 235.82 421.98 236.59 427.01 237.16 429.2 237.56 
M 131.14 240.29 136.09 239.91 144.51 238.64 147.97 238.46 
M 172.5 237.47 174.15 237.66 185.35 240.58 190.4 241.08 197.27 241.27 202.28 241.11 208.86 240.18 213.82 239.16 215.5 239.06 223.88 240.17 228.92 240.54 232.19 240.95 237.18 241.01 242.03 241.36 245.39 241.19 248.63 240.71 250.27 240.35 255.04 238.66 258.31 238.21 269.84 239.36 273.11 239.33 278.06 239.01 294.95 239.02 298.33 238.83 309.85 237.13 317.98 236.71 326.27 237.09 331.23 238.1 334.42 238.59 337.72 238.88 339.41 238.88 344.53 238.34 352.59 236.12 354.24 235.89 359.26 235.87 367.58 236.94 372.51 237.15 375.83 237.16 380.91 236.73 382.58 236.86 385.87 237.56 390.95 237.43 394.15 236.66 395.77 236.5 398.17 236.64 
M 126.27 241.69 129.51 241.91 132.79 241.91 137.78 241.27 144.45 240.03 146.15 239.89 152.95 239.84 161.31 239.21 171.12 238.83 172.79 238.86 174.42 239.11 185.57 242.27 188.93 242.63 197.53 242.85 202.52 242.72 207.53 242.24 214.17 241.06 215.83 240.99 224.13 242.11 227.48 242.19 234.15 242.85 237.45 242.81 242.29 243.11 243.97 243.07 247.31 242.62 250.57 242.01 255.42 240.75 258.69 240.44 263.67 240.83 268.6 241.6 270.25 241.71 275.13 241.55 283.46 240.79 291.91 241.18 295.35 241.14 298.67 240.89 305.31 239.88 308.53 239.18 316.65 238.64 326.57 239.02 338.08 240.94 343.15 240.78 344.83 240.51 352.87 238.22 354.52 238.02 359.52 238.12 362.88 238.47 366.18 239.11 369.47 239.42 374.39 239.43 381.16 239.07 386.12 239.78 391.19 239.52 394.41 238.7 396.51 238.57 
M 151.37 242.13 158.09 241.97 168.02 241.19 172.93 241.18 176.12 241.94 185.68 244.72 189.06 245.03 197.68 245.15 202.69 244.96 209.35 244.26 214.36 243.32 216.03 243.28 224.28 244.27 227.59 244.27 234.28 244.76 237.59 244.55 242.47 244.71 244.14 244.66 249.13 244.11 255.61 242.63 257.24 242.46 258.89 242.38 263.84 242.66 268.78 243.56 270.43 243.64 272.06 243.65 278.63 243.17 283.68 243.1 295.59 243.6 300.52 243.09 310.25 241.46 318.43 240.95 325.08 241.25 336.63 242.92 339.99 243.01 345.01 242.36 353.04 240.07 358.15 239.93 
M 369.81 241.69 374.76 241.79 381.55 241.53 386.54 242.2 391.49 241.75 394.7 240.9 396.33 240.73 399.87 241.07 
M 127.93 246.27 132.83 246.41 137.75 245.73 144.43 244.45 146.14 244.26 152.88 244.27 161.2 243.63 171.17 243.21 172.79 243.26 174.39 243.57 185.6 246.77 187.27 246.99 201 247.47 209.3 246.96 214.31 246.15 215.95 246.08 224.17 246.98 227.46 246.92 234.1 247.36 237.48 247.16 244.09 247.33 248.98 246.67 255.36 244.99 258.67 244.68 263.64 244.94 268.55 245.8 270.21 245.9 283.56 245.55 293.74 245.67 298.74 245.38 301.95 244.84 310.15 243.88 318.32 243.4 324.93 243.77 334.9 245.25 339.93 245.56 343.25 245.25 351.38 243.14 352.99 242.78 354.62 242.66 358.05 242.58 363.1 242.97 368 243.58 371.5 243.74 
M 126.33 249.52 131.15 249.77 132.78 249.71 
M 152.99 247.22 169.64 246.15 172.94 246.13 174.56 246.51 180.79 248.64 185.58 250.07 187.29 250.32 195.88 250.65 207.65 250.21 214.29 249 215.99 248.9 224.16 249.79 227.45 249.81 232.38 250.27 237.46 249.94 244.06 250.01 250.52 248.98 255.28 247.64 258.58 247.38 263.58 248 268.49 248.87 270.13 248.97 271.78 248.96 278.45 248.37 295.34 249.01 298.62 248.83 305.17 247.93 310.07 247.07 315 246.63 318.28 246.52 324.92 246.84 334.87 248.14 338.24 248.44 339.91 248.42 343.19 248.08 344.83 247.73 349.61 246.26 352.88 245.49 358.01 245.2 363.03 245.78 366.3 246.35 372.92 246.99 381.32 247.01 386.29 247.63 391.64 247.17 
M 132.8 252.55 146.19 250.6 154.57 250.75 171.18 249.57 172.85 249.62 174.49 249.94 185.65 252.92 187.37 253.15 195.97 253.63 204.43 253.61 207.75 253.3 214.31 252.1 216.04 252 224.23 252.93 227.51 253.03 232.45 253.53 237.47 253.38 244.05 253.47 247.25 253.05 250.45 252.39 255.18 250.8 258.47 250.55 263.51 251.15 268.41 252.17 271.7 252.3 274.61 252.14 
M 286.51 251.66 293.28 251.94 296.55 251.88 304.68 250.92 309.68 250.13 312.93 249.86 317.89 249.72 336.18 251.34 339.51 251.48 342.82 251.2 344.46 250.87 349.73 249.42 
M 132.88 256.71 137.8 255.91 146.08 254.05 152.69 253.95 161.05 253.28 171.04 252.95 172.7 253.03 174.31 253.39 178.97 255.07 185.35 257.01 188.77 257.52 195.64 257.81 202.4 257.66 207.34 257.37 209 257.14 214 256.04 215.66 255.91 223.8 256.87 232 257.63 243.49 257.61 249.94 256.49 254.74 255.25 258.04 254.8 261.46 254.95 268.11 256.1 271.45 256.36 273.11 256.37 278.02 255.97 288.14 256.1 
M 291.49 256.23 294.85 256.24 
M 338.03 255.27 343.11 255.08 344.73 254.74 351.11 252.76 352.71 252.35 354.4 252.14 357.88 252.05 364.55 252.74 367.91 253.42 371.65 253.52 
M 146.37 258.44 153 258.45 168.03 257.52 171.35 257.38 173.01 257.47 176.2 258.16 185.88 260.8 187.56 261.09 196.04 261.75 202.87 261.86 207.81 261.48 214.44 260.3 216.1 260.24 224.27 261.16 227.55 261.14 232.5 261.6 237.36 261.38 243.89 261.49 250.4 260.61 255.27 259.42 258.61 259.15 263.8 259.58 268.76 260.43 272.13 260.62 283.72 260.21 292.16 260.64 297.21 260.49 303.72 259.83 308.66 258.92 311.98 258.5 318.67 258.2 325.19 258.27 336.83 259.77 340.16 259.94 345.16 259.33 353.22 257.12 356.6 256.95 361.64 257.28 368.27 258.27 
M 148.06 263.71 164.6 262.67 173.01 262.78 174.62 263.14 185.78 266.49 189.74 266.87 
M 194.83 267.03 199.95 267.39 204.94 267.33 208.22 266.93 213.13 265.74 214.81 265.52 216.49 265.55 224.73 266.51 227.93 266.51 232.87 267.03 236.2 266.96 242.73 267.14 244.35 266.99 250.87 265.73 255.68 264.46 259 264.22 264.14 264.71 269.08 265.62 272.35 265.76 277.33 265.43 282.38 265.36 292.46 265.72 299.12 265.25 304.07 264.57 308.98 263.62 310.66 263.59 318.98 262.83 325.46 262.97 330.44 263.82 338.8 264.69 342.19 264.62 345.49 264.3 353.67 262.56 357.06 262.41 358.73 262.42 363.75 262.89 367.03 263.49 373.27 263.82 
M 144.58 270.06 146.26 269.84 152.93 269.84 171.23 268.72 172.9 268.86 174.54 269.27 185.62 272.65 187.27 272.92 197.54 273.6 203.18 273.5 
M 204.86 273.37 208.2 272.97 213.13 271.81 214.8 271.56 216.48 271.57 221.39 272.22 224.58 272.46 227.86 272.43 232.86 272.95 237.8 272.74 244.42 272.7 249.48 272.05 254.28 271.01 257.58 270.7 259.27 270.71 269.29 272.01 272.7 272.06 284.33 271.38 292.74 271.46 304.22 270.25 309.23 269.54 319.11 268.82 325.7 269.04 330.65 269.89 335.7 270.58 339.08 270.87 342.44 270.74 344.09 270.5 352.11 268.6 353.8 268.35 358.91 268.34 363.93 268.79 367.28 269.35 373.92 269.83 377.23 269.81 381.64 269.49 
M 164.63 276.63 169.62 275.98 172.89 275.9 174.5 276.2 184.07 278.93 187.34 279.47 194.15 279.55 201 279.85 206.06 279.82 209.41 279.53 214.39 278.72 216 278.65 224.18 279.72 229.03 279.63 232.32 280 237.32 279.74 242.45 279.87 244.11 279.77 249.06 279.03 250.69 278.66 253.86 277.64 255.48 277.28 257.15 277.16 263.87 277.9 268.91 278.75 272.28 278.78 282.32 278.25 292.16 278.5 297.14 278.14 308.65 276.5 315.22 275.94 318.54 275.86 321.34 276.03 
M 351.63 275.71 353.28 275.39 
M 356.66 275.26 360.08 275.3 
M 403 236.82 406.37 237.44 408.93 237.59 
M 402.99 237.38 406.31 238.19 408 238.34 411.3 238.95 415.62 240.02 
M 402.99 237.93 406.26 238.95 407.92 239.21 411.19 240.03 417.29 241.99 
M 402.98 238.48 407.27 239.95 
M 132.4 216.32 135.18 214.52 136.8 214.09 138.47 214.28 139.99 214.99 141.36 215.93 140.46 217.29 138.93 217.81 137.3 218.01 135.63 217.74 132.4 216.32 
M 138 216.36 136.9 217.61 135.46 216.68 136.1 215.13 138 216.36 
M 136.16 215.12 135.44 216.59 
M 136.8 215.03 135.74 217.17 
M 137.32 215.19 136.17 217.51 
M 137.72 215.59 136.7 217.66 
M 137.98 216.27 137.4 217.44 
M 132.88 213.27 134.31 212.55 135.87 212.01 137.54 211.83 139.17 212.12 142.16 213.45 
M 135.3 214.47 135.7 213.24 
M 137.29 214.08 137.7 212.86 
M 139.24 214.58 139.64 213.36 
M 117.35 197.3 125.67 198.11 135.84 198.81 150.78 200.53 159.16 201.2 167.39 201.44 179.02 201.38 184.09 201.51 208.94 202.73 215.71 202.65 228.96 201.88 243.75 200.66 252.27 200.15 285.5 196.75 302.04 194.43 315.11 192.23 332.87 188.31 366.78 178.79 385.71 172.47 402.93 166.32 
M 402.93 166.32 400.72 170.81 399.41 173.89 395.33 184.75 391.73 195.78 390.34 200.56 385.49 214.92 380.59 227.39 376.73 235.94 
M 117.35 197.3 120.84 202.98 135.38 225.28 139.29 230.74 144.02 236.47 
M 119.46 200.72 137.86 202.05 151.18 203.58 157.88 204.09 167.84 204.43 182.75 204.41 207.84 205.64 216.23 205.51 232.77 204.51 242.56 203.67 257.79 202.66 282.6 200.24 302.6 197.67 318.81 194.85 333.42 191.77 372.24 181.21 380.23 178.74 400.26 171.9 
M 123.6 207.24 138.5 208.32 150.31 209.59 163.71 210.31 168.61 210.45 183.44 210.38 205.34 211.3 215.34 211.37 218.69 211.29 235.27 210.24 263.56 208.1 285.12 206.24 295.1 205.16 303.48 204.07 319.54 201.52 334.44 198.63 352.58 194.1 363.88 191.5 373.65 188.96 383.05 186.37 396.21 182.36 
M 125.73 210.49 137.19 211.27 150.65 212.65 162.47 213.23 168.93 213.4 182.15 213.26 204.1 214.2 217.41 214.29 235.68 213.2 258.93 211.48 283.89 209.4 298.9 208.02 303.79 207.36 320.08 204.9 334.93 202.15 343.25 200.23 349.86 198.49 364.48 195.43 370.91 193.85 382.11 190.92 394.51 187.33 
M 127.84 213.72 136.06 214.22 
M 139.12 214.53 150.95 215.65 162.76 216.23 182.45 216.21 206 217.18 216.02 217.18 235.99 216.15 260.96 214.4 297.52 211.38 302.48 210.87 313.86 209.36 320.4 208.38 333.56 205.98 350.21 202.21 366.38 199 379.46 195.87 392.87 192.25 
M 129.86 216.9 134.08 217.17 
M 139.57 217.63 151.45 218.68 159.86 219.14 166.5 219.3 182.92 219.23 191.36 219.42 203.14 220 209.87 220.18 214.83 220.12 239.72 218.85 249.63 218.11 263.12 217.36 284.64 215.52 297.96 214.57 311.1 213.11 322.43 211.53 330.72 210.15 350.71 205.95 368.64 202.47 378.58 200.29 391.37 197.02 
M 131.96 220.2 157.19 221.99 167.1 222.24 188.63 222.35 200.44 222.84 210.48 223.04 217.03 222.9 235.44 222.03 267.11 220.29 273.57 219.63 298.65 217.77 311.74 216.38 323.11 214.9 329.77 213.84 343.07 211.15 369.43 206.27 381.01 203.85 389.91 201.79 
M 134.19 223.5 149.24 224.57 157.75 224.92 170.87 225.27 177.39 225.2 189.23 225.39 199.41 225.77 209.36 225.9 236.05 225 269.3 223.25 275.83 222.66 295.88 221.29 322.12 218.51 332.09 216.99 355.39 212.63 360.28 211.93 370.16 210.19 388.25 206.53 
M 136.47 226.82 148.16 227.54 160.02 227.95 208.33 228.73 216.53 228.65 240.01 227.78 268.29 226.46 286.39 225.18 311.41 223.12 327.76 221.23 332.79 220.5 352.8 216.97 372.69 213.85 386.66 211.24 
M 138.78 230.07 159.01 230.87 183.79 231.42 200.59 231.38 212.32 231.64 218.98 231.48 225.74 231.09 242.43 230.75 267.35 229.69 308.9 226.77 326.85 224.89 335.18 223.76 355.19 220.46 368.5 218.6 385.1 215.95 
M 141.29 233.28 181.2 234.36 213.17 234.43 228.34 233.86 243.26 233.76 251.58 233.31 264.85 232.89 301.43 230.66 313.04 229.76 327.76 228.36 337.79 227.11 383.3 220.51 
M 143.94 236.38 144.45 236.4 
M 188.89 237.4 217.5 237.24 234.33 236.68 242.57 236.77 254.16 236.13 269.05 235.74 277.28 235.18 300.81 234.03 317.27 232.9 337.15 230.92 381.55 225.06 
M 295.45 237.64 297.47 237.53 
M 325.71 235.49 340.64 234.24 348.98 233.1 362.34 231.55 368.93 230.96 379.6 229.64 
M 365.56 235.29 377.58 234.14 
M 126 196.26 136.14 197.02 151.09 198.73 157.74 199.19 167.73 199.61 182.72 199.6 209.21 200.87 215.99 200.79 230.9 199.93 242.35 198.94 254.21 198.19 262.57 197.37 285.83 194.84 302.29 192.5 315.4 190.37 331.51 186.79 365.42 177.31 374.94 174.24 394.26 167.45 
M 125.96 198.14 126 196.26 
M 131.19 198.51 131.2 196.66 
M 136.44 198.87 136.46 197.06 
M 141.5 199.44 141.54 197.66 
M 146.68 200.09 146.69 198.25 
M 151.83 200.63 151.87 198.79 
M 156.99 201.06 157.01 199.16 
M 162.13 201.33 162.14 199.43 
M 167.24 201.44 167.29 199.59 
M 172.37 201.48 172.39 199.63 
M 177.47 201.39 177.49 199.57 
M 182.69 201.47 182.7 199.6 
M 187.72 201.71 187.74 199.87 
M 192.74 202.01 192.76 200.16 
M 197.87 202.27 197.87 200.38 
M 203.06 202.52 203.06 200.62 
M 208.23 202.73 208.22 200.86 
M 213.42 202.7 213.41 200.86 
M 218.64 202.48 218.61 200.63 
M 223.81 202.15 223.77 200.34 
M 228.83 201.88 228.81 200.03 
M 233.95 201.52 233.94 199.7 
M 239 201.05 239.02 199.27 
M 244.08 200.64 244.08 198.82 
M 249.36 200.34 249.41 198.55 
M 254.56 199.94 254.55 198.16 
M 259.74 199.46 259.7 197.66 
M 264.94 198.93 264.92 197.09 
M 270.04 198.35 270.05 196.5 
M 275.13 197.83 275.18 195.91 
M 280.32 197.28 280.36 195.38 
M 285.44 196.76 285.49 194.88 
M 290.55 196.09 290.61 194.22 
M 295.77 195.36 295.8 193.47 
M 300.9 194.61 300.86 192.68 
M 305.99 193.77 305.97 191.87 
M 311.15 192.89 311.19 191.08 
M 316.21 192.04 316.23 190.21 
M 321.12 190.95 321.13 189.1 
M 326.24 189.76 326.27 187.88 
M 331.49 188.66 331.49 186.79 
M 336.67 187.24 336.71 185.39 
M 342 185.76 342.04 183.91 
M 347.17 184.28 347.17 182.42 
M 352.3 182.78 352.26 180.93 
M 357.37 181.39 357.31 179.54 
M 362.52 180 362.5 178.12 
M 367.72 178.5 367.66 176.61 
M 372.8 176.83 372.81 174.92 
M 377.88 175.1 377.83 173.21 
M 383.01 173.38 382.98 171.49 
M 388.1 171.55 388.06 169.69 
M 393.1 169.74 393.11 167.86 
M 368.07 77.22 371.71 99.94 375.37 118.43 378.93 141.36 381.57 155.86 382.27 160.74 384.57 172.86 
M 375.06 105.72 377.31 119.24 380.15 140.56 382.47 155.18 383.04 160.06 385.11 172.68 
M 378.28 134.83 379.24 141.45 381.77 155.96 382.45 160.85 384.66 172.83 
M 377.6 163.76 381.06 174.01 
M 300.75 49.85 301.6 54.83 304.37 74.34 306.61 87.78 307.46 94.28 308.89 102.55 311.32 118.99 315.08 141.75 317.73 159.88 321.01 179.87 322.45 190.62 
M 313.43 87.38 315.5 107.2 316.47 118.77 318.15 133.48 319.56 148.36 320.03 155 321.65 171.77 322.62 180.16 323.36 190.4 
M 316.6 124.79 317.58 132.87 319.58 154.35 322.51 181.16 323.23 190.43 
M 310.02 162.25 319.69 191.29 
M 182.01 95.84 186.02 112.04 194.47 142.26 202.13 171.44 211.18 202.71 
M 190.38 122.73 195.43 141.76 203.07 172.69 211.2 202.71 
M 195.72 149.37 201.86 171.98 211.16 202.71 
M 197.38 176.47 202.56 187.04 210.82 202.71 
M 347.95 168.99 354.55 168.11 362.63 165.94 377 161.37 402.86 152.42 
M 348.65 171.87 355.21 170.87 366.46 167.7 376.12 164.62 402.8 155.28 
M 349.3 174.81 354.25 174.06 356.06 173.6 
M 358.46 172.93 364.65 171.18 
M 367.1 170.49 373.31 168.44 
M 375.74 167.67 381.76 165.57 
M 384.13 164.74 390.15 162.6 
M 392.54 161.78 402.89 158.11 
M 349.96 177.74 354.9 176.86 367.76 173.24 374.18 171.15 402.93 161 
M 350.75 180.68 355.57 179.61 368.39 175.94 382.59 171.18 402.91 163.99 
M 402.52 167.11 402.93 166.97 
M 356.06 174.4 356.04 172.67 357.04 171.38 358.44 172.33 358.51 173.98 356.06 174.4 
M 364.66 171.94 364.64 170.26 365.65 168.94 367.1 169.89 367.11 171.58 364.66 171.94 
M 373.3 169.17 373.33 167.52 374.38 166.23 375.76 167.1 375.7 168.75 373.3 169.17 
M 381.76 166.29 381.75 164.63 382.73 163.31 384.13 164.19 384.13 165.84 381.76 166.29 
M 390.17 163.29 390.14 161.63 391.13 160.33 392.53 161.25 392.57 162.91 390.17 163.29 
M 347.34 166.25 353.94 165.43 358.79 164.22 365.15 162.36 376.46 158.78 401.49 150.12 402.88 151.08 402.93 166.32 
M 401.9 168.35 378.45 176.66 373.67 178.27 362.55 181.67 352.99 184.26 351.39 183.03 
M 347.3 163.65 402.94 147.02 
M 347.34 166.25 347.3 163.65 
M 348.32 165.99 348.29 163.34 
M 349.3 165.71 349.28 163.03 
M 350.3 165.4 350.28 162.72 
M 351.31 165.07 351.29 162.41 
M 352.32 164.74 352.32 162.12 
M 353.32 164.43 353.31 161.83 
M 354.31 164.14 354.29 161.56 
M 355.31 163.85 355.27 161.27 
M 356.3 163.57 356.27 160.98 
M 357.31 163.3 357.27 160.67 
M 358.34 163.02 358.28 160.35 
M 359.35 162.72 359.3 160.03 
M 360.35 162.4 360.32 159.73 
M 361.35 162.09 361.33 159.43 
M 362.35 161.78 362.34 159.15 
M 363.34 161.51 363.33 158.88 
M 364.32 161.25 364.32 158.59 
M 365.32 160.96 365.32 158.29 
M 366.35 160.67 366.35 157.99 
M 367.38 160.35 367.39 157.7 
M 368.41 160.04 368.42 157.39 
M 369.44 159.72 369.45 157.08 
M 370.48 159.4 370.48 156.76 
M 371.5 159.08 371.51 156.45 
M 372.53 158.76 372.52 156.13 
M 373.53 158.44 373.53 155.81 
M 374.52 158.13 374.54 155.52 
M 375.52 157.83 375.53 155.24 
M 376.5 157.52 376.51 154.96 
M 377.48 157.21 377.5 154.66 
M 378.46 156.91 378.47 154.33 
M 379.43 156.59 379.46 154.01 
M 380.42 156.28 380.44 153.71 
M 381.44 155.99 381.45 153.42 
M 382.45 155.7 382.46 153.14 
M 383.45 155.41 383.45 152.84 
M 384.46 155.12 384.45 152.54 
M 385.45 154.81 385.45 152.24 
M 386.44 154.51 386.44 151.94 
M 387.42 154.21 387.41 151.65 
M 388.38 153.91 388.36 151.35 
M 389.35 153.62 389.33 151.05 
M 390.31 153.33 390.31 150.73 
M 391.29 153.03 391.31 150.42 
M 392.29 152.73 392.31 150.12 
M 393.31 152.43 393.32 149.84 
M 394.33 152.13 394.32 149.55 
M 395.33 151.81 395.32 149.24 
M 396.33 151.48 396.31 148.92 
M 397.32 151.17 397.31 148.6 
M 398.32 150.88 398.32 148.31 
M 399.32 150.6 399.33 148.01 
M 400.32 150.33 400.34 147.72 
M 401.33 150.06 401.36 147.45 
M 402.35 149.8 402.38 147.18 
M 306.8 77.95 326.11 72.75 337.21 69.39 345.3 67.38 365.41 61.67 
M 307.08 79.14 324.94 74.82 333.02 72.68 345.69 69.1 365.78 62.82 
M 306.8 77.95 307.08 79.14 
M 365.41 61.67 365.78 62.82 
M 307.96 177.76 321.15 177.28 341.25 176.11 349.54 175.88 
M 307.98 178.84 321.19 178.69 344.58 177.85 349.91 177.52 
M 307.96 177.76 307.98 178.84 
M 216.71 51.12 245.59 42.76 269.74 36.12 277.62 33.81 294.02 30 
M 217 52.23 255.83 42.08 277.96 35.31 294.37 31.16 
M 216.71 51.12 217 52.23 
M 294.02 30 294.37 31.16 
M 218.26 184.53 253.34 182.48 265.2 181.93 283.58 181.3 306.82 180.9 
M 218.32 185.65 261.83 183.98 275.34 183.18 291.99 182.44 306.86 181.99 
M 218.26 184.53 218.32 185.65 
M 306.82 180.9 306.86 181.99 
M 123.62 96.62 139.81 92.51 162.26 86.3 178.75 81.27 
M 123.89 97.77 141.79 93.77 151.42 91.36 164.21 87.45 179.14 82.43 
M 123.62 96.62 123.89 97.77 
M 178.75 81.27 179.14 82.43 
M 136.4 188.44 153.04 188.37 164.71 187.9 183.09 186.81 199.08 186.2 
M 136.4 189.57 153.04 189.86 166.38 189.59 184.73 188.19 199.16 187.32 
M 136.4 188.44 136.4 189.57 
M 199.08 186.2 199.16 187.32 
M 308.83 78.72 308.88 88.89 308.74 95.48 309.37 131.91 310.44 151.77 312.29 176.91 321.94 177.23 
M 348.83 177.57 349.93 177.6 
M 377.93 158.25 378.27 151.67 378.3 136.83 378.13 126.89 377.37 118.65 375.68 108.48 373.62 100.16 372.68 95.32 370.03 84.09 366.38 71.34 363.87 63.43 
M 308.82 83.69 313.57 82.86 328.61 80.69 346.71 78.6 361.71 77.43 368.07 77.22 
M 308.82 84.76 328.59 81.79 346.73 79.7 361.68 78.53 368.08 78.29 
M 308.88 89.35 317.05 89.35 325.29 89.13 335.37 89.44 347.06 89.57 360.29 90.24 371.73 91.22 
M 308.88 90.41 315.43 90.45 325.26 90.23 345.38 90.63 361.97 91.41 371.72 92.29 
M 308.73 94.84 312.11 95.42 328.28 97.6 354.83 101.65 366.22 103.76 375.06 105.72 
M 308.75 95.94 346.63 101.4 354.85 102.73 366.26 104.86 375.1 106.83 
M 308.88 100.44 315.22 102.09 326.11 105.48 348.87 111.29 360.26 114.55 377.63 120.55 
M 308.9 101.53 315.24 103.18 327.72 107 348.88 112.35 360.27 115.65 377.63 121.62 
M 308.93 106.04 315.1 108.44 322.6 111.65 339.57 118.54 356.69 125.07 378.28 134.83 
M 308.92 107.12 315.08 109.52 339.57 119.65 356.69 126.17 362.96 128.87 370.64 132.53 378.28 135.92 
M 308.95 111.65 314.81 114.54 326.51 120.78 341 128.76 355.97 136.37 378.3 149.26 
M 308.94 112.7 314.79 115.6 326.56 121.85 341 129.83 354.51 136.69 372.04 146.6 378.33 150.33 
M 309.11 117.26 328.85 129.52 341.06 137.94 356.4 148.02 367.41 155.69 373 159.9 
M 309.1 118.34 328.88 130.58 342.46 139.96 355.03 148.16 366.04 155.8 372 160.24 
M 370.89 157.41 370.78 160.64 
M 372.69 134.24 372.81 144.14 373.07 150.67 372.89 159.94 
M 372.54 110.22 374.03 118.74 374.65 127.01 374.94 135.35 374.97 143.58 375.18 150.12 374.93 159.28 
M 369.06 84.25 371.61 95.47 372.58 100.35 374.21 106.99 376.04 117.16 376.48 120.48 376.91 125.42 377.17 135.39 377.22 151.84 376.93 158.62 
M 218.71 51.75 217.46 78.4 217.21 86.67 217.29 108.38 217.58 115.4 217.66 125.35 219.13 153.36 219.98 166.86 221.55 184.39 
M 221.69 185.58 223.3 186.15 251.64 184.3 
M 304.98 180.87 307.74 171.41 310.89 158.49 
M 310.67 76.9 307.68 67.42 303.09 55.15 295.74 38.38 292.52 31.63 
M 218.32 58.55 221.62 57.98 241.47 55.4 266.45 53.08 279.46 51.45 300.75 49.85 
M 218.32 59.64 221.63 59.07 243.13 56.28 253.2 55.46 268.04 53.96 279.47 52.52 300.76 50.95 
M 218.03 66.19 231.64 66.24 248.02 66.05 256.29 66.37 266.32 67.02 284.68 67.04 298.01 68.02 308.06 68.53 
M 218.02 67.27 233.29 67.34 244.72 67.08 254.6 67.34 264.67 68.03 284.64 68.08 298.01 69.08 308.03 69.62 
M 217.68 73.77 237.67 76.49 247.47 77.54 260.56 79.85 267.11 80.68 275.46 81.34 280.39 81.97 290.54 83.82 308.85 86.66 
M 217.69 74.85 224.48 75.66 237.67 77.58 247.49 78.67 260.54 80.97 267.12 81.75 277.1 82.62 280.38 83.08 288.83 84.64 308.88 87.78 
M 217.35 81.24 227.2 83.66 243.15 88.05 257.72 92.52 264.26 94.01 278.61 96.85 290.27 99.43 303.44 103.05 308.94 104.26 
M 217.36 82.32 227.18 84.76 243.14 89.16 257.69 93.6 264.26 95.1 278.62 97.9 288.66 100.14 293.66 101.39 303.42 104.18 308.94 105.33 
M 217.17 88.9 237.26 96.9 245.23 99.87 257.72 104.91 273.39 109.74 284.67 113.43 302.08 119.72 309.26 122.17 
M 217.18 90.01 235.71 97.37 243.65 100.3 257.74 105.97 271.84 110.31 284.66 114.52 309.26 123.27 
M 217.26 96.64 233.55 104.99 242.59 109.3 254.46 115.23 258.95 117.69 272.76 123.46 287.91 130.18 298.42 135.15 309.89 140.92 
M 217.26 97.7 233.56 106.09 242.62 110.4 254.48 116.32 258.95 118.77 272.76 124.52 287.91 131.24 304.34 139.12 309.96 142.04 
M 217.23 104.04 230.16 112.31 248.39 123.37 259.69 130.63 269.95 136.03 282.95 143.33 290.13 147.66 293 149.48 302.5 156.21 310.02 162.25 
M 217.24 105.1 230.2 113.39 248.41 124.45 259.69 131.75 268.52 136.33 282.93 144.42 288.73 147.87 293 150.59 302.54 157.28 310.06 163.3 
M 296.02 175.75 295.43 178.56 
M 301.94 154.54 300.34 164.48 299.02 171 297.25 178.44 
M 307.39 131.01 306.43 140.78 304.56 152.35 302.47 163.9 299.14 178.35 
M 309.54 134.79 308.6 142.99 307.44 149.52 304.43 164.31 301.04 178.24 
M 308.28 81.76 308.82 84.1 
M 310.15 147.29 306.29 165.26 302.94 178.14 
M 302.53 56.44 306.4 67.18 309.55 77.23 
M 310.67 154.96 308.08 166.3 304.87 178.07 
M 125.81 97.43 126.87 107.33 128.34 123.94 130.08 135.3 131.94 145.02 134.79 158.33 138.64 174.65 141.52 185.81 143.17 186.12 153.14 187 165.45 187.87 
M 180.19 188.53 196.67 189.77 197.41 188.3 197.43 187.4 
M 197.44 186.25 197.41 177.94 197 162.96 195.53 147.85 194.58 141.2 191.88 128.45 188.85 117.23 182.79 98.14 177.21 83.01 
M 126.26 101.78 136.14 100.54 141.13 99.76 152.62 98.42 170.92 96.95 182.01 95.84 
M 126.26 102.86 136.12 101.63 144.41 100.38 152.62 99.46 157.76 99.16 170.91 98.03 181.99 96.92 
M 126.82 106.77 135.06 107.03 148.49 106.93 168.48 107.77 186.36 109.31 
M 126.82 107.89 135.03 108.1 148.5 108.01 166.81 108.76 173.47 109.17 178.37 109.75 186.33 110.39 
M 127.25 111.86 162.06 116.9 174.96 119.25 190.38 122.73 
M 127.24 112.95 162.06 117.99 174.96 120.32 190.36 123.78 
M 127.69 116.88 148.78 122.36 163.36 126.6 171.29 128.55 193.53 135.89 
M 127.69 117.97 148.8 123.39 160.07 126.84 171.28 129.64 193.56 136.94 
M 128.13 121.82 147.04 128.69 160.88 134.7 173.28 139.23 187.08 145.22 195.72 149.37 
M 128.13 122.88 147.04 129.78 160.85 135.76 173.3 140.29 185.59 145.65 195.69 150.46 
M 128.72 126.78 143.94 133.76 151.33 137.56 160.06 142.45 166.07 145.3 173.51 149.15 183.78 154.89 193.69 160.87 197.01 163.09 
M 128.74 127.88 143.93 134.86 149.84 137.86 160.06 143.53 169.05 147.9 183.75 155.97 193.71 161.98 197.01 164.2 
M 129.45 131.73 136.77 135.66 146.89 141.41 163.62 152.42 172.13 157.71 184.73 166.23 188.6 169.19 197.38 176.47 
M 129.46 132.75 136.8 136.71 146.9 142.49 163.58 153.52 172.13 158.8 182.02 165.36 184.73 167.32 188.56 170.28 197.4 177.57 
M 190.92 179.18 191.08 186.48 
M 191.27 156.07 192.4 166.1 192.93 186.43 
M 189.26 131.63 191.63 142.75 192.36 147.73 194.12 162.84 194.39 167.87 194.77 186.36 
M 183.61 103.94 187.58 116.68 188.94 121.51 191.75 132.66 193.68 142.29 194.6 148.95 196 162.35 196.26 167.4 196.56 186.28 
M 196.54 187.45 196.54 187.63 
M 320.7 191.06 321.05 178.69 
M 321.06 177.29 321.06 177.23 
M 318.69 74.75 318.35 67.57 
M 324.97 190.03 325.14 178.5 
M 320.65 74.21 320.13 67.42 
M 318.35 67.57 320.13 67.42 
M 235.22 201.37 236.02 185.29 
M 232.32 46.6 231.52 37.48 
M 239.44 201.02 240.13 185.05 
M 234.15 46.08 233.34 37.3 
M 231.52 37.48 233.34 37.3 
M 149.68 200.42 148.76 189.79 
M 148.66 188.38 148.51 186.54 
M 134.99 93.76 133.67 87.23 
M 154.05 200.82 152.84 189.86 
M 152.7 188.38 152.56 186.95 
M 136.85 93.27 135.47 86.9 
M 133.67 87.23 135.47 86.9 
M 233.34 37.39 245.13 36.89 260.14 37.09 265.26 37.35 
M 295.17 37.14 295.32 37.48 
M 259.21 39 244.18 39.44 233.57 40.26 
M 105.85 55.25 107.06 54.12 108.73 54.27 110.41 54.22 112.02 54.68 112.85 55.73 
M 240.38 291.39 238.49 297.7 
M 238.28 291.39 242.48 291.39 
M 243.98 291.39 242.09 297.7 
M 242.99 294.7 244.16 293.8 244.85 293.5 245.75 293.5 246.26 293.8 246.29 294.7 245.39 297.7 
M 248.21 295.3 251.81 295.3 251.99 294.7 251.87 294.1 251.15 293.5 250.25 293.5 249.56 293.8 248.78 294.39 248.21 295.3 248.03 295.89 248.06 296.8 248.48 297.39 248.99 297.7 249.89 297.7 250.58 297.39 251.36 296.8 
M 259.58 291.39 258.89 291.7 258.11 292.3 257.06 293.8 256.61 295.3 256.64 296.2 256.76 296.8 257.18 297.39 257.69 297.7 258.89 297.7 259.58 297.39 260.36 296.8 261.4 295.3 261.86 293.8 261.71 292.3 261.28 291.7 260.77 291.39 259.58 291.39 
M 264.05 293.5 262.78 297.7 
M 263.51 295.3 264.08 294.39 264.86 293.8 265.55 293.5 266.45 293.5 
M 268.27 291.39 268.49 291.7 268.88 291.39 268.67 291.1 268.27 291.39 
M 267.95 293.5 266.69 297.7 
M 271.55 293.5 270.86 293.8 270.08 294.39 269.51 295.3 269.33 295.89 269.36 296.8 269.77 297.39 270.29 297.7 271.19 297.7 271.88 297.39 272.66 296.8 273.23 295.89 273.41 295.3 273.38 294.39 272.95 293.8 272.45 293.5 271.55 293.5 
M 276.05 293.5 274.79 297.7 
M 275.69 294.7 276.86 293.8 277.55 293.5 278.45 293.5 278.95 293.8 278.99 294.7 278.08 297.7 
M 280.97 297.1 280.58 297.39 280.79 297.7 281.18 297.39 280.97 297.1 
"/></svg>
